<svg width="32.000000" height="45.000000" viewBox="0 0 32 45" fill="none" xmlns="http://www.w3.org/2000/svg" xmlns:xlink="http://www.w3.org/1999/xlink">
	<desc>
			Created with Pixso.
	</desc>
	<defs/>
	<path id="Vector" d="M15.5 21.37C13.98 21.37 12.53 20.78 11.45 19.72C10.38 18.67 9.78 17.24 9.78 15.75C9.78 14.25 10.38 12.82 11.45 11.77C12.53 10.71 13.98 10.12 15.5 10.12C17.01 10.12 18.46 10.71 19.54 11.77C20.61 12.82 21.21 14.25 21.21 15.75C21.21 16.48 21.06 17.21 20.77 17.9C20.49 18.58 20.07 19.2 19.54 19.72C19 20.25 18.38 20.66 17.68 20.94C16.99 21.22 16.25 21.37 15.5 21.37ZM15.5 0C11.25 0 7.18 1.65 4.18 4.61C1.18 7.56 -0.5 11.57 -0.5 15.75C-0.5 27.56 15.5 45 15.5 45C15.5 45 31.5 27.56 31.5 15.75C31.5 11.57 29.81 7.56 26.81 4.61C23.81 1.65 19.74 0 15.5 0Z" fill="#6D95FC" fill-opacity="1.000000" fill-rule="nonzero"/>
</svg>
