<svg width="104.000000" height="96.000000" viewBox="0 0 104 96" fill="none" xmlns="http://www.w3.org/2000/svg" xmlns:xlink="http://www.w3.org/1999/xlink">
	<desc>
			Created with Pixso.
	</desc>
	<defs>
		<linearGradient id="paint_linear_78_1244_0" x1="71.500000" y1="62.499996" x2="71.500000" y2="48.000000" gradientUnits="userSpaceOnUse">
			<stop offset="0.637760" stop-color="#6D95FC"/>
			<stop offset="1.000000" stop-color="#FFFFFF"/>
		</linearGradient>
	</defs>
	<path id="Vector" d="M60.4355 17.9033L52.998 10.4893C52.5195 10 52.5195 9.21777 52.998 8.72852C53.2324 8.49414 53.5508 8.36328 53.8809 8.36328C54.2109 8.36328 54.5293 8.49414 54.7617 8.72852L62.1895 16.1426L62.1895 16.1416C62.4238 16.375 62.5547 16.6914 62.5547 17.0225C62.5547 17.3525 62.4238 17.6689 62.1895 17.9033C61.957 18.1357 61.6406 18.2666 61.3105 18.2666C60.9824 18.2666 60.666 18.1357 60.4355 17.9033ZM55.9277 28.5664C56.6016 28.5869 57.1387 29.1377 57.1387 29.8115C57.1387 30.4844 56.6016 31.0352 55.9277 31.0557L45.5078 31.0557C45.1699 31.0664 44.8438 30.9404 44.6016 30.7051C44.3574 30.4707 44.2227 30.1484 44.2227 29.8115C44.2227 29.4746 44.3574 29.1514 44.6016 28.917C44.8438 28.6826 45.1699 28.5566 45.5078 28.5664L55.9277 28.5664ZM103.998 29.8125C104 30.1416 103.869 30.459 103.635 30.6914C103.4 30.9248 103.084 31.0557 102.754 31.0557L92.3281 31.0557C91.6543 31.0352 91.1172 30.4844 91.1172 29.8115C91.1172 29.1377 91.6543 28.5869 92.3281 28.5664L102.754 28.5664C103.084 28.5664 103.402 28.6982 103.635 28.9307C103.869 29.165 104 29.4814 104 29.8125L103.998 29.8125ZM95.252 8.73047C95.4863 8.96387 95.6191 9.28125 95.6191 9.61133C95.6191 9.94238 95.4863 10.2588 95.252 10.4922L87.8223 17.9023C87.584 18.1367 87.2637 18.2676 86.9297 18.2676C86.4258 18.2666 85.9707 17.9629 85.7793 17.498C85.5859 17.0332 85.6914 16.4971 86.0488 16.1416L93.4844 8.73047C93.9727 8.24512 94.7656 8.24512 95.2559 8.73047L95.252 8.73047ZM74.1211 0C74.4531 -0.00195312 74.7734 0.12793 75.0098 0.361328C75.2441 0.595703 75.3789 0.913086 75.3789 1.24414L75.3789 10.5586C75.3574 11.2334 74.8027 11.7695 74.127 11.7695C73.4512 11.7695 72.8965 11.2334 72.877 10.5586L72.877 1.24414C72.8789 0.558594 73.4355 0.00292969 74.1211 0ZM87.5195 24.2656L78.7695 23.4434L75.2715 15.3896C75.0742 14.9307 74.623 14.6348 74.1211 14.6377C73.627 14.6357 73.1797 14.9336 72.9922 15.3896L69.4941 23.4434L60.7441 24.2656L60.7441 24.2656C60.2461 24.3066 59.8203 24.6406 59.6621 25.1152C59.5059 25.5889 59.6484 26.1104 60.0254 26.4385L66.6289 32.2422L64.7012 40.8076L64.7031 40.8076C64.5957 41.293 64.7871 41.7939 65.1914 42.085C65.5938 42.376 66.1309 42.4023 66.5605 42.1514L74.1211 37.6787L81.7012 42.1514C81.8887 42.2637 82.1035 42.3232 82.3242 42.3252C82.5898 42.3262 82.8477 42.2422 83.0625 42.0869C83.4648 41.7959 83.6543 41.291 83.541 40.8076L81.625 32.2422L88.2285 26.4355C88.5977 26.1055 88.7363 25.5889 88.584 25.1182C88.4297 24.6484 88.0117 24.3125 87.5195 24.2627L87.5195 24.2656ZM83.6367 96L64.6074 96L64.6074 49.9736L83.6367 49.9736L83.6367 96ZM43.0781 96L43.0781 60.7217L62.1133 60.7217L62.1133 96L43.0781 96ZM0 82.2129L19.0391 82.2129L19.0391 96L0 96L0 82.2129ZM40.584 71.4658L40.584 96L21.541 96L21.541 71.4658L40.584 71.4658Z" fill="url(#paint_linear_78_1244_0)" fill-opacity="1.000000" fill-rule="evenodd"/>
	<path id="Vector" d="M74.1211 0C74.4531 -0.00195312 74.7734 0.12793 75.0098 0.361328C75.2441 0.595703 75.3789 0.913086 75.3789 1.24414L75.3789 10.5586C75.3574 11.2334 74.8027 11.7695 74.127 11.7695C73.4512 11.7695 72.8965 11.2334 72.877 10.5586L72.877 1.24414C72.8789 0.558594 73.4355 0.00292969 74.1211 0ZM73.877 10.54Q73.8828 10.6504 73.9414 10.708Q74.0039 10.7695 74.127 10.7695Q74.25 10.7695 74.3125 10.708Q74.373 10.6504 74.3789 10.5391L74.3789 1.24414Q74.3789 1.19922 74.3633 1.16016Q74.3457 1.11133 74.3047 1.07129Q74.2715 1.03906 74.2324 1.02148Q74.1855 1 74.127 1Q73.998 1.00098 73.9355 1.06445Q73.877 1.12598 73.877 1.24414L73.877 10.54ZM93.6758 8.57422C93.6074 8.61914 93.543 8.6709 93.4844 8.73047L86.0488 16.1416C85.6914 16.4971 85.5859 17.0332 85.7793 17.498C85.9707 17.9629 86.4258 18.2666 86.9297 18.2676C87.2637 18.2676 87.584 18.1367 87.8223 17.9023L95.252 10.4922C95.457 10.2871 95.584 10.0176 95.6133 9.73047C95.6172 9.69141 95.6191 9.65137 95.6191 9.61133C95.6191 9.28223 95.4863 8.96582 95.2539 8.7334C95.2539 8.73242 95.252 8.73145 95.252 8.73047L95.2559 8.73047C95.2559 8.73047 95.2539 8.72949 95.2539 8.72852C94.8242 8.30371 94.1621 8.25293 93.6758 8.57422ZM94.5117 9.4043Q94.4395 9.34961 94.3691 9.34961Q94.2793 9.35059 94.1895 9.43945L86.7559 16.8486Q86.6973 16.9062 86.6836 16.9736Q86.6719 17.0391 86.7031 17.1143Q86.7324 17.1895 86.7891 17.2275Q86.8477 17.2666 86.9316 17.2676Q86.9961 17.2676 87.0469 17.2422Q87.084 17.2246 87.1152 17.1943L94.5469 9.7832Q94.584 9.74609 94.6016 9.70117Q94.6191 9.65918 94.6191 9.61133Q94.6191 9.56445 94.6016 9.52344Q94.584 9.47754 94.5469 9.43945L94.5117 9.4043ZM61.1895 15.1436L54.7617 8.72852C54.5293 8.49414 54.2109 8.36328 53.8809 8.36328C53.5508 8.36328 53.2324 8.49414 52.998 8.72852C52.5195 9.21777 52.5195 10 52.998 10.4893L60.4355 17.9033C60.666 18.1357 60.9824 18.2666 61.3105 18.2666C61.6406 18.2666 61.957 18.1357 62.1895 17.9033C62.248 17.8438 62.3008 17.7803 62.3457 17.7119C62.4805 17.5088 62.5547 17.2695 62.5547 17.0225C62.5547 16.6924 62.4238 16.376 62.1895 16.1416L62.1895 16.1416L62.1895 16.1426L62.1895 16.1416L61.1895 15.1436ZM61.4941 16.8623L54.0547 9.43457Q54.0195 9.39941 53.9766 9.38086Q53.9316 9.36328 53.8809 9.36328Q53.8105 9.36328 53.7578 9.39355Q53.7344 9.40723 53.7129 9.42871Q53.625 9.51855 53.625 9.6084Q53.625 9.69727 53.709 9.78613L61.1426 17.1973Q61.1758 17.2305 61.2168 17.248Q61.2598 17.2666 61.3105 17.2666Q61.3594 17.2666 61.4004 17.25Q61.4453 17.2324 61.4824 17.1953Q61.5215 17.1562 61.5391 17.1104Q61.5547 17.0693 61.5547 17.0225Q61.5547 16.9746 61.5391 16.9326Q61.5234 16.8945 61.4941 16.8623ZM78.7695 23.4434L75.2715 15.3896C75.0742 14.9307 74.623 14.6348 74.1211 14.6377C73.627 14.6357 73.1797 14.9336 72.9922 15.3896L69.4941 23.4434L60.7852 24.2627L60.7441 24.2656L60.7441 24.2666C60.7285 24.2676 60.7129 24.2686 60.6973 24.2705C60.2188 24.3281 59.8145 24.6553 59.6621 25.1152C59.5059 25.5889 59.6484 26.1104 60.0254 26.4385L66.6289 32.2422L64.9258 39.8076L64.7012 40.8076L64.7012 40.8076L64.7031 40.8076L64.7031 40.8076C64.6641 40.9863 64.6641 41.168 64.7031 41.3398C64.7656 41.6338 64.9375 41.9014 65.1914 42.085C65.5938 42.376 66.1309 42.4023 66.5605 42.1514L74.1211 37.6787L81.7012 42.1514C81.8887 42.2637 82.1035 42.3232 82.3242 42.3252C82.5898 42.3262 82.8477 42.2422 83.0625 42.0869C83.4648 41.7959 83.6543 41.291 83.541 40.8076L81.625 32.2422L88.2285 26.4355C88.5977 26.1055 88.7363 25.5889 88.584 25.1182C88.5684 25.0693 88.5488 25.0225 88.5273 24.9775C88.3418 24.582 87.9609 24.3076 87.5195 24.2627L87.5195 24.2627L87.5195 24.2656L87.5195 24.2656L86.5176 24.1719L78.7695 23.4434ZM87.4629 25.2656L78.0879 24.3838L77.8535 23.8418L74.3555 15.7891Q74.3203 15.709 74.2598 15.6719Q74.2051 15.6367 74.127 15.6377Q74.041 15.6367 73.9844 15.6787Q73.9395 15.7119 73.916 15.7715L70.1758 24.3838L60.8379 25.2617L60.8164 25.0391L60.8242 25.2627Q60.7422 25.2695 60.6895 25.3125Q60.6367 25.3535 60.6113 25.4287Q60.5879 25.5039 60.6055 25.5674Q60.6211 25.6318 60.6836 25.6855L67.7344 31.8828L65.7012 40.917L65.6797 41.0205Q65.6621 41.0996 65.6855 41.1641Q65.7109 41.2275 65.7773 41.2744Q65.8438 41.3232 65.9141 41.3271Q65.9824 41.3301 66.0547 41.2881L74.1191 36.5176L82.209 41.29Q82.252 41.3164 82.2988 41.3232Q82.3145 41.3252 82.3301 41.3252Q82.3633 41.3252 82.3926 41.3174Q82.4355 41.3057 82.4746 41.2783Q82.541 41.2295 82.5625 41.166Q82.584 41.1074 82.5664 41.0352L80.5195 31.8828L87.5684 25.6846Q87.6191 25.6387 87.6387 25.582Q87.6602 25.5127 87.6328 25.4277Q87.6074 25.3535 87.5566 25.3115Q87.5176 25.2783 87.4629 25.2656ZM45.5078 31.0557C45.1699 31.0664 44.8438 30.9404 44.6016 30.7051C44.3574 30.4707 44.2227 30.1484 44.2227 29.8115C44.2227 29.4746 44.3574 29.1514 44.6016 28.917C44.8438 28.6826 45.1699 28.5566 45.5078 28.5664L55.9277 28.5664C56.6016 28.5869 57.1387 29.1377 57.1387 29.8115C57.1387 30.4844 56.6016 31.0352 55.9277 31.0557L45.5078 31.0557ZM55.9082 29.5664L45.4922 29.5664L45.4785 29.5664Q45.4238 29.5645 45.377 29.583Q45.332 29.6006 45.2949 29.6357Q45.2598 29.6709 45.2402 29.7139Q45.2227 29.7588 45.2227 29.8115Q45.2227 29.8613 45.2402 29.9043Q45.2578 29.9502 45.2969 29.9873Q45.332 30.0205 45.3711 30.0381Q45.4199 30.0586 45.4785 30.0566L45.4922 30.0557L55.9082 30.0557Q56.0215 30.0498 56.0801 29.9902Q56.1387 29.9287 56.1387 29.8115Q56.1387 29.6934 56.0801 29.6328Q56.0215 29.5723 55.9082 29.5664ZM104 29.8125L104 29.8066C104 29.4785 103.869 29.1631 103.635 28.9307C103.592 28.8877 103.547 28.8477 103.498 28.8125C103.283 28.6533 103.023 28.5664 102.754 28.5664L92.3281 28.5664C91.6543 28.5869 91.1172 29.1377 91.1172 29.8115C91.1172 30.4844 91.6543 31.0352 92.3281 31.0557L102.754 31.0557C103.084 31.0557 103.4 30.9248 103.635 30.6914C103.869 30.459 104 30.1416 103.998 29.8125L104 29.8125ZM102.998 29.7793Q102.994 29.7471 102.982 29.7188Q102.965 29.6748 102.93 29.6387Q102.893 29.6025 102.85 29.585Q102.805 29.5664 102.754 29.5664L92.3477 29.5664Q92.2344 29.5723 92.1758 29.6328Q92.1172 29.6934 92.1172 29.8115Q92.1172 29.9287 92.1758 29.9902Q92.2344 30.0498 92.3477 30.0557L102.754 30.0557Q102.803 30.0557 102.846 30.0391Q102.891 30.0205 102.928 29.9834L102.93 29.9824Q102.963 29.9482 102.98 29.9062Q102.998 29.8633 102.998 29.8145L102.998 29.7793ZM64.6074 95L64.6074 49.9736L83.6367 49.9736L83.6367 50.9736L83.6367 96L64.6074 96L64.6074 95ZM65.6074 95L82.6367 95L82.6367 50.9736L65.6074 50.9736L65.6074 95ZM43.0781 60.7217L43.0781 61.7217L43.0781 95L43.0781 96L62.1133 96L62.1133 60.7217L43.0781 60.7217ZM61.1133 61.7217L44.0781 61.7217L44.0781 95L61.1133 95L61.1133 61.7217ZM40.584 72.4658L40.584 96L21.541 96L21.541 71.4658L40.584 71.4658L40.584 72.4658ZM39.584 72.4658L39.584 95L22.541 95L22.541 72.4658L39.584 72.4658ZM19.0391 82.2129L0 82.2129L0 96L19.0391 96L19.0391 82.2129ZM18.0391 83.2129L18.0391 95L1 95L1 83.2129L18.0391 83.2129ZM86.5059 23.166L86.5059 23.1562L87.6191 23.2676Q88.3477 23.3418 88.8262 23.7256Q89.3066 24.1113 89.5352 24.8086Q89.7598 25.5 89.6035 26.0908Q89.4434 26.6904 88.8887 27.1865L82.7305 32.6025L84.5137 40.5791Q84.6836 41.3037 84.4668 41.8838Q84.25 42.4609 83.6504 42.8955Q83.3652 43.1035 83.0449 43.2109Q82.7012 43.3262 82.3164 43.3252Q81.9727 43.3232 81.6602 43.2236Q81.416 43.1465 81.1934 43.0127L74.1211 38.8408L72.0664 15.0088Q72.3535 14.3154 72.8711 13.9727Q73.3809 13.6348 74.1152 13.6377Q74.8652 13.6328 75.3848 13.9756Q75.8984 14.3145 76.1895 14.9912L79.4531 22.5029L86.5059 23.166Z" fill="#6D95FC" fill-opacity="1.000000" fill-rule="evenodd"/>
</svg>
