<svg width="21.000000" height="34.000000" viewBox="0 0 21 34" fill="none" xmlns="http://www.w3.org/2000/svg" xmlns:xlink="http://www.w3.org/1999/xlink">
	<desc>
			Created with Pixso.
	</desc>
	<defs/>
	<path id="Vector" d="M20.5 10.73C20.5 17.11 17.27 28.11 8.55 32.4C7.73 32.81 7.22 31.77 7.9 31.16C13.85 25.79 15.86 20.23 10.5 20.97C4.97 20.97 0.5 16.38 0.5 10.73C0.5 5.08 4.97 0.5 10.5 0.5C16.02 0.5 20.5 5.08 20.5 10.73L20.5 10.73Z" fill="#6D95FC" fill-opacity="1.000000" fill-rule="nonzero"/>
	<path id="Vector" d="M8.55 32.4C7.73 32.81 7.22 31.77 7.9 31.16C13.85 25.79 15.86 20.23 10.5 20.97C4.97 20.97 0.5 16.38 0.5 10.73C0.5 5.08 4.97 0.5 10.5 0.5C16.02 0.5 20.5 5.08 20.5 10.73L20.5 10.73C20.5 17.11 17.27 28.11 8.55 32.4Z" stroke="#151515" stroke-opacity="1.000000" stroke-width="1.000000"/>
</svg>
