<svg width="21.000000" height="21.000000" viewBox="0 0 21 21" fill="none" xmlns="http://www.w3.org/2000/svg" xmlns:xlink="http://www.w3.org/1999/xlink">
	<desc>
			Created with Pixso.
	</desc>
	<defs/>
	<path id="Vector" d="M11.5254 0L11.5254 0.0214844L11.5254 2.12402C16.1465 2.69238 19.4199 6.8877 18.8516 11.5039C18.3672 15.332 15.3574 18.3711 11.5254 18.8232L11.5254 20.9268C17.3145 20.3477 21.5254 15.2168 20.9473 9.43262C20.4727 4.4375 16.5039 0.494141 11.5254 0ZM9.41992 0.03125C7.36914 0.231445 5.41016 1.02051 3.81055 2.34473L5.31641 3.90137C6.49414 2.95508 7.91602 2.34473 9.41992 2.13477L9.41992 0.03125ZM2.32617 3.82812C1 5.42578 0.210938 7.37109 0 9.43262L2.10547 9.43262C2.30469 7.93945 2.89453 6.51953 3.83203 5.33105L2.32617 3.82812ZM14.1582 6.80371L9.02148 11.9355L6.78906 9.70605L5.67383 10.8203L9.02148 14.165L15.2734 7.91797L14.1582 6.80371ZM0.00976562 11.5361C0.220703 13.5967 1.03125 15.542 2.33594 17.1406L3.83203 15.6367C2.9043 14.4482 2.30469 13.0293 2.11523 11.5361L0.00976562 11.5361ZM5.31641 17.1826L3.81055 18.623C5.40039 19.9482 7.35742 20.7793 9.41992 21L9.41992 18.8965C7.92578 18.708 6.50586 18.1084 5.31641 17.1826Z" fill="#6D95FC" fill-opacity="1.000000" fill-rule="nonzero"/>
</svg>
