<svg width="95.000000" height="92.440430" viewBox="0 0 95 92.4404" fill="none" xmlns="http://www.w3.org/2000/svg" xmlns:xlink="http://www.w3.org/1999/xlink">
	<desc>
			Created with Pixso.
	</desc>
	<defs>
		<linearGradient id="paint_linear_78_1165_0" x1="47.500000" y1="0.000000" x2="47.500000" y2="92.440269" gradientUnits="userSpaceOnUse">
			<stop offset="0.452091" stop-color="#6D95FC"/>
			<stop offset="0.641150" stop-color="#FFFFFF"/>
		</linearGradient>
	</defs>
	<path id="Vector" d="M16.0293 62.5029C16.0293 64.9229 14.0625 66.8916 11.6426 66.8916C9.22266 66.8916 7.25391 64.9238 7.25391 62.5029C7.25391 60.083 9.22266 58.1152 11.6426 58.1152C14.0625 58.1162 16.0293 60.083 16.0293 62.5029ZM5.31445 62.5029C5.31445 65.9912 8.15234 68.8291 11.6406 68.8291C15.1289 68.8291 17.9668 65.9912 17.9668 62.5029C17.9668 59.0156 15.1289 56.1768 11.6406 56.1768C8.15234 56.1777 5.31445 59.0156 5.31445 62.5029ZM87.7441 62.5029C87.7441 64.9229 85.7773 66.8916 83.3555 66.8916C80.9395 66.8916 78.9688 64.9238 78.9688 62.5029C78.9688 60.083 80.9395 58.1152 83.3555 58.1152C85.7773 58.1162 87.7441 60.083 87.7441 62.5029ZM77.0293 62.5029C77.0293 65.9912 79.8691 68.8291 83.3555 68.8291C86.8457 68.8291 89.6816 65.9912 89.6816 62.5029C89.6816 59.0156 86.8457 56.1768 83.3555 56.1768C79.8691 56.1777 77.0293 59.0156 77.0293 62.5029ZM47.5 66.8916C45.0801 66.8916 43.1133 64.9238 43.1133 62.5029C43.1133 60.083 45.0801 58.1152 47.5 58.1152C49.9199 58.1152 51.8887 60.083 51.8887 62.5029C51.8887 64.9238 49.9199 66.8916 47.5 66.8916ZM47.5 56.1777C44.0117 56.1777 41.1738 59.0156 41.1738 62.5049C41.1738 65.9922 44.0117 68.8301 47.5 68.8301C50.9883 68.8301 53.8262 65.9922 53.8262 62.5049C53.8262 59.0156 50.9883 56.1777 47.5 56.1777ZM93.0645 90.5029L73.6523 90.5029L73.6523 77.8877C73.6523 75.8799 74.8145 74.0264 76.5898 73.123C78.5703 74.54 80.8984 75.2881 83.3555 75.2881C85.8145 75.2881 88.1406 74.54 90.1191 73.123C91.8984 74.0264 93.0605 75.8799 93.0605 77.8877L93.0625 90.5029L93.0645 90.5029ZM90.3457 71.1006C90.0254 70.9766 89.6602 71.0303 89.3906 71.2461C87.6582 72.6211 85.5723 73.3496 83.3555 73.3496C81.1406 73.3496 79.0527 72.6201 77.3242 71.2461C77.0547 71.0312 76.6914 70.9766 76.3691 71.1006C73.584 72.1836 71.7129 74.9092 71.7129 77.8857L71.7129 91.4707C71.7129 92.0068 72.1465 92.4404 72.6836 92.4404L94.0312 92.4404C94.5664 92.4404 95 92.0049 95 91.4707L95 77.8877C95.002 74.9111 93.1309 72.1836 90.3457 71.1006L90.3457 71.1006ZM57.207 90.5029L37.7969 90.5029L37.7969 77.8877C37.7969 75.8799 38.959 74.0264 40.7363 73.123C42.7168 74.54 45.043 75.2881 47.5 75.2881C49.9609 75.2881 52.2871 74.54 54.2656 73.123C56.043 74.0264 57.207 75.8799 57.207 77.8877L57.207 90.5029ZM54.4883 71.1006C54.168 70.9766 53.8047 71.0303 53.5332 71.2461C51.8027 72.6211 49.7168 73.3496 47.5 73.3496C45.2852 73.3496 43.1992 72.6201 41.4668 71.2461C41.1973 71.0312 40.834 70.9766 40.5137 71.1006C37.7285 72.1836 35.8574 74.9092 35.8574 77.8857L35.8574 91.4707C35.8574 92.0068 36.291 92.4404 36.8262 92.4404L58.1777 92.4404C58.7109 92.4404 59.1465 92.0049 59.1465 91.4707L59.1465 77.8877C59.1465 74.9111 57.2754 72.1836 54.4883 71.1006L54.4883 71.1006ZM21.3496 90.5029L1.93945 90.5029L1.93945 77.8877C1.93945 75.8799 3.10156 74.0264 4.87891 73.123C6.85938 74.54 9.18555 75.2881 11.6426 75.2881C14.1016 75.2881 16.4277 74.54 18.4082 73.123C20.1855 74.0264 21.3477 75.8799 21.3477 77.8877L21.3477 90.5029L21.3496 90.5029ZM18.6309 71.1006C18.3105 70.9766 17.9473 71.0303 17.6777 71.2461C15.9453 72.6211 13.8594 73.3496 11.6445 73.3496C9.42773 73.3496 7.3418 72.6201 5.61133 71.2461C5.33984 71.0312 4.97852 70.9766 4.65625 71.1006C1.87109 72.1836 0 74.9092 0 77.8857L0 91.4707C0 92.0068 0.435547 92.4404 0.970703 92.4404L22.3184 92.4404C22.8535 92.4404 23.2871 92.0049 23.2871 91.4707L23.2871 77.8877C23.2871 74.9111 21.416 72.1836 18.6309 71.1006L18.6309 71.1006ZM71.2617 16.3838C71.6816 16.3838 72.0547 16.1123 72.1855 15.7129L73.4883 11.707L74.7871 15.7129C74.918 16.1123 75.2891 16.3838 75.7109 16.3838L79.9238 16.3838L76.5156 18.8594C76.1758 19.1055 76.0332 19.543 76.1621 19.9424L77.4648 23.9482L74.0566 21.4736C73.8848 21.3516 73.6855 21.2891 73.4883 21.2891C73.2871 21.2891 73.0879 21.3506 72.916 21.4736L69.5078 23.9482L70.8105 19.9424C70.9414 19.543 70.7969 19.1055 70.457 18.8594L67.0508 16.3838L71.2617 16.3838ZM63.4961 16.1973L68.7461 20.0127L66.7422 26.1875C66.6113 26.5869 66.7539 27.0234 67.0938 27.2715C67.4336 27.5176 67.8945 27.5176 68.2324 27.2715L73.4863 23.4561L78.7383 27.2715C78.9062 27.3965 79.1074 27.4561 79.3066 27.4561C79.5078 27.4561 79.707 27.3945 79.877 27.2715C80.2168 27.0234 80.3574 26.5869 80.2285 26.1875L78.2227 20.0127L83.4746 16.1973C83.8145 15.9512 83.957 15.5127 83.8262 15.1143C83.6973 14.7148 83.3242 14.4453 82.9043 14.4453L76.4121 14.4453L74.4043 8.26953C74.2754 7.87109 73.9043 7.60156 73.4844 7.60156C73.0645 7.60156 72.6914 7.87109 72.5605 8.26953L70.5566 14.4453L64.0625 14.4453C63.6426 14.4453 63.2715 14.7148 63.1406 15.1143C63.0137 15.5127 63.1543 15.9512 63.4961 16.1973ZM45.2793 16.3838C45.6992 16.3838 46.0703 16.1123 46.2012 15.7129L47.5 11.708L48.8027 15.7139C48.9336 16.1133 49.3047 16.3848 49.7266 16.3848L53.9375 16.3848L50.5293 18.8604C50.1895 19.1064 50.0488 19.5439 50.1758 19.9434L51.4785 23.9492L48.0703 21.4736C47.9004 21.3516 47.7012 21.2891 47.5 21.2891C47.3008 21.2891 47.1016 21.3506 46.9316 21.4736L43.5215 23.9482L44.8242 19.9424C44.9551 19.543 44.8125 19.1055 44.4727 18.8594L41.0645 16.3838L45.2793 16.3838ZM37.5117 16.1973L42.7637 20.0127L40.7578 26.1875C40.627 26.5869 40.7695 27.0234 41.1113 27.2715C41.4492 27.5176 41.9102 27.5176 42.25 27.2715L47.5 23.457L52.7539 27.2725C52.9238 27.3975 53.123 27.457 53.3223 27.457C53.5234 27.457 53.7227 27.3955 53.8926 27.2725C54.2324 27.0234 54.375 26.5879 54.2461 26.1885L52.2402 20.0137L57.4902 16.1982C57.832 15.9521 57.9746 15.5137 57.8438 15.1143C57.7148 14.7148 57.3418 14.4453 56.9219 14.4453L50.4277 14.4453L48.4238 8.27051C48.293 7.87109 47.9219 7.60156 47.5 7.60156C47.082 7.60156 46.709 7.87109 46.5781 8.27051L44.5742 14.4453L38.082 14.4453C37.6621 14.4453 37.2891 14.7148 37.1602 15.1143C37.0293 15.5127 37.1719 15.9512 37.5117 16.1973L37.5117 16.1973ZM19.293 16.3838C19.7129 16.3838 20.0859 16.1123 20.2148 15.7129L21.5176 11.707L22.8184 15.7129C22.9492 16.1123 23.3203 16.3838 23.7422 16.3838L27.9551 16.3838L24.5469 18.8594C24.2051 19.1055 24.0645 19.543 24.1934 19.9424L25.4961 23.9482L22.0879 21.4736C21.918 21.3516 21.7188 21.2891 21.5176 21.2891C21.3184 21.2891 21.1172 21.3506 20.9473 21.4736L17.541 23.9482L18.8418 19.9424C18.9727 19.543 18.8301 19.1055 18.4902 18.8594L15.082 16.3838L19.293 16.3838ZM11.5273 16.1973L16.7812 20.0127L14.7754 26.1875C14.6445 26.5869 14.7852 27.0234 15.127 27.2715C15.4668 27.5176 15.9258 27.5176 16.2676 27.2715L21.5195 23.4561L26.7695 27.2715C26.9395 27.3965 27.1406 27.4561 27.3398 27.4561C27.5391 27.4561 27.7402 27.3945 27.9102 27.2715C28.25 27.0234 28.3906 26.5869 28.2617 26.1875L26.2559 20.0127L31.5078 16.1973C31.8477 15.9512 31.9902 15.5127 31.8613 15.1143C31.7305 14.7148 31.3594 14.4453 30.9375 14.4453L24.4453 14.4453L22.4395 8.26953C22.3105 7.87109 21.9375 7.60156 21.5176 7.60156C21.0977 7.60156 20.7246 7.87109 20.5957 8.26953L18.5898 14.4453L12.0977 14.4453C11.6777 14.4453 11.3066 14.7148 11.1758 15.1143C11.0449 15.5127 11.1875 15.9512 11.5273 16.1973L11.5273 16.1973ZM6.59961 8.56445L6.59961 26.4922C6.59961 30.1465 9.57422 33.1211 13.2266 33.1211L43.0977 33.1211C43.5098 33.1211 43.8789 33.3828 44.0137 33.7734L47.5 43.8418L50.9883 33.7734C51.125 33.3838 51.4922 33.1221 51.9062 33.1221L81.7773 33.1221C85.4316 33.1221 88.4043 30.1475 88.4043 26.4932L88.4043 8.56445C88.4043 4.91016 85.4316 1.93848 81.7773 1.93848L13.2266 1.93848C9.57227 1.9375 6.59961 4.90918 6.59961 8.56445ZM13.2266 35.0605L42.4062 35.0605L46.5859 47.1201C46.7227 47.5127 47.0879 47.7725 47.502 47.7725C47.916 47.7725 48.2832 47.5107 48.418 47.1201L52.5957 35.0605L81.7754 35.0605C86.498 35.0605 90.3418 31.2178 90.3418 26.4932L90.3418 8.56543C90.3418 3.84277 86.4961 0 81.7754 0L13.2266 0C8.50195 0 4.66016 3.84277 4.66016 8.56543L4.66016 26.4932C4.66211 31.2178 8.50391 35.0605 13.2266 35.0605Z" fill="url(#paint_linear_78_1165_0)" fill-opacity="1.000000" fill-rule="evenodd"/>
</svg>
