<svg width="20.000000" height="20.000000" viewBox="0 0 20 20" fill="none" xmlns="http://www.w3.org/2000/svg" xmlns:xlink="http://www.w3.org/1999/xlink">
	<desc>
			Created with Pixso.
	</desc>
	<defs/>
	<path id="Vector" d="M6.93 19.54C7.9 19.83 8.87 20 9.9 20C12.55 20 15.09 18.94 16.97 17.07C18.84 15.19 19.9 12.65 19.9 10C19.9 8.68 19.64 7.38 19.13 6.17C18.63 4.95 17.9 3.85 16.97 2.92C16.04 2 14.94 1.26 13.72 0.76C12.51 0.25 11.21 0 9.9 0C8.58 0 7.28 0.25 6.07 0.76C4.85 1.26 3.75 2 2.83 2.92C0.95 4.8 -0.1 7.34 -0.1 10C-0.1 14.25 2.57 17.9 6.33 19.33C6.25 18.55 6.16 17.26 6.33 16.37L7.49 11.44C7.49 11.44 7.2 10.86 7.2 9.94C7.2 8.55 8.06 7.53 9.04 7.53C9.9 7.53 10.3 8.16 10.3 8.96C10.3 9.83 9.73 11.05 9.43 12.24C9.26 13.21 9.96 14.08 10.96 14.08C12.74 14.08 14.12 12.17 14.12 9.5C14.12 7.09 12.4 5.45 9.92 5.45C7.11 5.45 5.45 7.55 5.45 9.76C5.45 10.62 5.73 11.5 6.18 12.07C6.28 12.12 6.28 12.21 6.25 12.36L5.96 13.45C5.96 13.62 5.84 13.67 5.67 13.55C4.4 13 3.66 11.17 3.66 9.7C3.66 6.54 5.9 3.67 10.22 3.67C13.66 3.67 16.33 6.15 16.33 9.42C16.33 12.87 14.21 15.62 11.16 15.62C10.18 15.62 9.24 15.11 8.9 14.5L8.23 16.87C8 17.73 7.37 18.87 6.93 19.57L6.93 19.54Z" fill="#6D95FC" fill-opacity="1.000000" fill-rule="nonzero"/>
</svg>
