<svg width="20.000000" height="19.000000" viewBox="0 0 20 19" fill="none" xmlns="http://www.w3.org/2000/svg" xmlns:xlink="http://www.w3.org/1999/xlink">
	<desc>
			Created with Pixso.
	</desc>
	<defs/>
	<path id="Vector" d="M10 -0.92C4.5 -0.92 0 3.57 0 9.09C0 14.09 3.66 18.25 8.43 19L8.43 12L5.9 12L5.9 9.09L8.43 9.09L8.43 6.88C8.43 4.37 9.92 3 12.22 3C13.31 3 14.44 3.19 14.44 3.19L14.44 5.66L13.18 5.66C11.94 5.66 11.56 6.42 11.56 7.21L11.56 9.09L14.33 9.09L13.89 12L11.56 12L11.56 19C13.91 18.62 16.06 17.42 17.6 15.61C19.15 13.79 20 11.48 20 9.09C20 3.57 15.5 -0.92 10 -0.92Z" fill="#6D95FC" fill-opacity="1.000000" fill-rule="nonzero"/>
</svg>
