<svg width="18.000000" height="18.000000" viewBox="0 0 18 18" fill="none" xmlns="http://www.w3.org/2000/svg" xmlns:xlink="http://www.w3.org/1999/xlink">
	<desc>
			Created with Pixso.
	</desc>
	<defs/>
	<path id="Vector" d="M15.9 0C16.43 0 16.93 0.21 17.31 0.58C17.68 0.96 17.9 1.46 17.9 2L17.9 16C17.9 16.53 17.68 17.03 17.31 17.41C16.93 17.78 16.43 18 15.9 18L1.9 18C1.36 18 0.86 17.78 0.48 17.41C0.11 17.03 -0.1 16.53 -0.1 16L-0.1 2C-0.1 1.46 0.11 0.96 0.48 0.58C0.86 0.21 1.36 0 1.9 0L15.9 0ZM15.4 15.5L15.4 10.2C15.4 9.33 15.05 8.5 14.44 7.89C13.83 7.28 13 6.94 12.14 6.94C11.29 6.94 10.3 7.45 9.82 8.24L9.82 7.12L7.03 7.12L7.03 15.5L9.82 15.5L9.82 10.57C9.82 9.79 10.43 9.16 11.21 9.16C11.58 9.16 11.93 9.31 12.2 9.58C12.46 9.84 12.61 10.19 12.61 10.57L12.61 15.5L15.4 15.5ZM3.78 5.55C4.22 5.55 4.65 5.38 4.96 5.06C5.28 4.75 5.46 4.32 5.46 3.87C5.46 2.95 4.71 2.19 3.78 2.19C3.33 2.19 2.9 2.36 2.58 2.68C2.26 3 2.08 3.43 2.08 3.87C2.08 4.8 2.84 5.55 3.78 5.55ZM5.16 15.5L5.16 7.12L2.4 7.12L2.4 15.5L5.16 15.5Z" fill="#6D95FC" fill-opacity="1.000000" fill-rule="nonzero"/>
</svg>
