<svg width="20.000000" height="20.000000" viewBox="0 0 20 20" fill="none" xmlns="http://www.w3.org/2000/svg" xmlns:xlink="http://www.w3.org/1999/xlink">
	<desc>
			Created with Pixso.
	</desc>
	<defs/>
	<path id="Vector" d="M5.8 0L14.19 0C17.4 0 20 2.59 20 5.79L20 14.2C20 15.73 19.38 17.21 18.3 18.3C17.21 19.38 15.73 20 14.19 20L5.8 20C2.59 20 0 17.4 0 14.2L0 5.79C0 4.26 0.61 2.78 1.69 1.69C2.78 0.61 4.26 0 5.8 0ZM5.59 2C4.64 2 3.73 2.37 3.05 3.05C2.37 3.72 2 4.64 2 5.59L2 14.4C2 16.38 3.6 18 5.59 18L14.4 18C15.35 18 16.26 17.62 16.94 16.94C17.62 16.27 18 15.35 18 14.4L18 5.59C18 3.61 16.39 2 14.4 2L5.59 2ZM15.25 3.5C15.58 3.5 15.9 3.63 16.13 3.86C16.36 4.1 16.5 4.41 16.5 4.75C16.5 5.08 16.36 5.39 16.13 5.63C15.9 5.86 15.58 6 15.25 6C14.91 6 14.59 5.86 14.36 5.63C14.13 5.39 14 5.08 14 4.75C14 4.41 14.13 4.1 14.36 3.86C14.59 3.63 14.91 3.5 15.25 3.5ZM10 5C11.32 5 12.59 5.52 13.53 6.46C14.47 7.4 15 8.67 15 10C15 11.32 14.47 12.59 13.53 13.53C12.59 14.47 11.32 15 10 15C8.67 15 7.4 14.47 6.46 13.53C5.52 12.59 5 11.32 5 10C5 8.67 5.52 7.4 6.46 6.46C7.4 5.52 8.67 5 10 5ZM10 7C9.2 7 8.44 7.31 7.87 7.87C7.31 8.44 7 9.2 7 10C7 10.79 7.31 11.55 7.87 12.12C8.44 12.68 9.2 13 10 13C10.79 13 11.55 12.68 12.12 12.12C12.68 11.55 13 10.79 13 10C13 9.2 12.68 8.44 12.12 7.87C11.55 7.31 10.79 7 10 7Z" fill="#6D95FC" fill-opacity="1.000000" fill-rule="nonzero"/>
</svg>
