<svg width="38.000000" height="30.000000" viewBox="0 0 38 30" fill="none" xmlns="http://www.w3.org/2000/svg" xmlns:xlink="http://www.w3.org/1999/xlink">
	<desc>
			Created with Pixso.
	</desc>
	<defs/>
	<path id="Vector" d="M33.5 26.22L29.75 26.22L29.75 9.82L18.5 16.85L7.25 9.82L7.25 26.22L3.5 26.22L3.5 3.72L5.75 3.72L18.5 11.69L31.25 3.72L33.5 3.72L33.5 26.22ZM33.5 -0.03L3.5 -0.03C1.41 -0.03 -0.25 1.64 -0.25 3.72L-0.25 26.22C-0.25 27.22 0.14 28.17 0.84 28.87C1.55 29.58 2.5 29.97 3.5 29.97L33.5 29.97C34.49 29.97 35.44 29.58 36.15 28.87C36.85 28.17 37.25 27.22 37.25 26.22L37.25 3.72C37.25 1.64 35.56 -0.03 33.5 -0.03Z" fill="#6D95FC" fill-opacity="1.000000" fill-rule="nonzero"/>
</svg>
