<svg width="35.000000" height="34.000000" viewBox="0 0 35 34" fill="none" xmlns="http://www.w3.org/2000/svg" xmlns:xlink="http://www.w3.org/1999/xlink">
	<desc>
			Created with Pixso.
	</desc>
	<defs/>
	<path id="Vector" d="M7.03 14.48C9.83 19.75 14.34 24.06 19.85 26.74L24.13 22.65C24.67 22.13 25.43 21.98 26.11 22.18C28.29 22.87 30.62 23.24 33.05 23.24C33.57 23.24 34.06 23.44 34.42 23.79C34.79 24.14 35 24.61 35 25.1L35 31.61C35 32.11 34.79 32.58 34.42 32.93C34.06 33.28 33.57 33.47 33.05 33.47C24.28 33.47 15.88 30.14 9.68 24.21C3.48 18.28 0 10.24 0 1.86C0 1.36 0.2 0.89 0.57 0.54C0.93 0.19 1.42 0 1.94 0L8.75 0C9.26 0 9.75 0.19 10.12 0.54C10.49 0.89 10.69 1.36 10.69 1.86C10.69 4.18 11.08 6.41 11.8 8.5C12.01 9.15 11.86 9.87 11.31 10.39L7.03 14.48Z" fill="#6D95FC" fill-opacity="1.000000" fill-rule="nonzero"/>
</svg>
