<svg width="95.000000" height="107.960938" viewBox="0 0 95 107.961" fill="none" xmlns="http://www.w3.org/2000/svg" xmlns:xlink="http://www.w3.org/1999/xlink">
	<desc>
			Created with Pixso.
	</desc>
	<defs/>
	<path id="Vector" d="M57.0566 102.902L6.35352 102.902C4.66992 102.899 3.05469 102.229 1.86328 101.038C0.671875 99.8467 0.00195312 98.2324 0 96.5479L0 17.2871C0.00195312 15.6025 0.671875 13.9883 1.86328 12.7969C3.05469 11.6055 4.66992 10.9355 6.35352 10.9336L21.1191 10.9336C21.6328 10.9336 22.125 11.1377 22.4883 11.501C22.8516 11.8633 23.0547 12.3564 23.0547 12.8701L23.0547 17.7539L52.8281 17.7539L52.8281 12.8701C52.8281 11.8008 53.6953 10.9336 54.7637 10.9336L69.5117 10.9336C71.1973 10.9355 72.8125 11.6055 74.0039 12.7969C75.1953 13.9873 75.8652 15.6025 75.8652 17.2871L75.8652 62.2793C75.8652 62.835 75.627 63.3633 75.2109 63.7305C74.793 64.0977 74.2402 64.2676 73.6875 64.1992C72.8301 64.0889 71.9648 64.0342 71.0996 64.0342C65.5703 64.0283 60.2832 66.3105 56.4922 70.3389C52.7031 74.3672 50.7461 79.7832 51.0879 85.3037C51.4297 90.8232 54.0391 95.957 58.2949 99.4873C58.9238 100.009 59.1562 100.868 58.8789 101.635C58.6016 102.401 57.873 102.913 57.0566 102.913L57.0566 102.902ZM6.35352 14.8066C4.99023 14.8193 3.88867 15.9238 3.87891 17.2881L3.87891 96.5488C3.88086 97.915 4.98633 99.0244 6.35352 99.0293L52.4414 99.0293C48.6621 94.3203 46.8066 88.3555 47.2461 82.333C47.6855 76.3115 50.3867 70.6787 54.8066 66.5664C59.2285 62.4541 65.041 60.166 71.0781 60.1631C71.3789 60.1631 71.6777 60.1631 71.9766 60.1797L71.9766 17.2891C71.9746 15.9199 70.8652 14.8096 69.4961 14.8076L56.7012 14.8076L56.7012 19.6924C56.7012 20.2051 56.4961 20.6982 56.1328 21.0615C55.7715 21.4248 55.2773 21.6279 54.7637 21.6279L21.1191 21.6279C20.0508 21.6279 19.1836 20.7617 19.1836 19.6924L19.1836 14.8076L6.35352 14.8066Z" fill="#FFFFFF" fill-opacity="1.000000" fill-rule="nonzero"/>
	<path id="Vector" d="M23.0547 16.7539L23.0547 12.8701C23.0547 12.3564 22.8516 11.8633 22.4883 11.501C22.125 11.1377 21.6328 10.9336 21.1191 10.9336L6.35352 10.9336C4.66992 10.9355 3.05469 11.6055 1.86328 12.7969C0.671875 13.9883 0.00195312 15.6025 0 17.2871L0 96.5479C0.00195312 98.2324 0.671875 99.8467 1.86328 101.038C3.05469 102.229 4.66992 102.899 6.35352 102.902L57.0566 102.902L57.0566 102.913L57.0566 102.913C57.4219 102.912 57.7676 102.811 58.0645 102.63C58.4336 102.405 58.7246 102.06 58.8789 101.635C59.1562 100.868 58.9238 100.009 58.2949 99.4873C54.0391 95.957 51.4297 90.8232 51.0879 85.3037C50.7461 79.7832 52.7031 74.3672 56.4922 70.3389C60.2832 66.3105 65.5703 64.0283 71.0996 64.0342C71.9648 64.0342 72.8301 64.0889 73.6875 64.1992C74.2402 64.2676 74.793 64.0977 75.2109 63.7305C75.627 63.3633 75.8652 62.835 75.8652 62.2793L75.8652 17.2871C75.8652 15.6025 75.1953 13.9873 74.0039 12.7969C72.8125 11.6055 71.1973 10.9355 69.5117 10.9336L54.7637 10.9336C53.6953 10.9336 52.8281 11.8008 52.8281 12.8701L52.8281 17.7539L23.0547 17.7539L23.0547 16.7539ZM57.2227 101.902Q57.4434 101.872 57.6055 101.758Q57.8262 101.604 57.9375 101.295Q58.0508 100.984 57.9785 100.724Q57.9082 100.466 57.6582 100.258Q54.1523 97.3516 52.2617 93.626Q50.3711 89.9043 50.0898 85.3652Q49.8086 80.8223 51.2285 76.8936Q52.6465 72.9668 55.7637 69.6543Q58.8828 66.3398 62.7168 64.6846Q66.5508 63.0293 71.1016 63.0342Q72.4727 63.0352 73.8125 63.207Q74.0234 63.2334 74.2109 63.1748Q74.3926 63.1182 74.5488 62.9805Q74.709 62.8389 74.7891 62.6602Q74.8652 62.4873 74.8652 62.2793L74.8652 17.2881Q74.8652 16.1797 74.4727 15.2344Q74.0801 14.2881 73.2969 13.5039Q72.5098 12.7188 71.5625 12.3262Q70.6191 11.9346 69.5117 11.9336L54.7637 11.9336Q54.5703 11.9336 54.4043 12.002Q54.2402 12.0703 54.1016 12.208Q53.9648 12.3457 53.8965 12.5107Q53.8281 12.6768 53.8281 12.8701L53.8281 18.7539L22.0547 18.7539L22.0547 12.8701Q22.0547 12.6758 21.9863 12.5098Q21.918 12.3447 21.7812 12.208Q21.6445 12.0713 21.4785 12.0029Q21.3145 11.9336 21.1191 11.9336L6.35547 11.9336Q5.24609 11.9346 4.30078 12.3271Q3.35352 12.7197 2.57031 13.5039Q1.78516 14.2891 1.39258 15.2373Q1.00195 16.1816 1 17.2871L1 96.5469Q1.00195 97.6553 1.39453 98.6016Q1.78711 99.5479 2.57031 100.331Q3.35547 101.114 4.30078 101.508Q5.24609 101.9 6.35352 101.902L57.2227 101.902ZM3.75391 14.6953Q2.89062 15.5635 2.87891 17.2812L2.87891 17.2881L2.87891 96.5488Q2.88281 98.2832 3.75 99.1543Q4.61719 100.023 6.34961 100.029L54.5254 100.029L53.2207 98.4043Q50.4043 94.8926 49.1602 90.8926Q47.916 86.8936 48.2441 82.4062Q48.5703 77.9141 50.3848 74.1348Q52.1953 70.3613 55.4883 67.2979Q58.7832 64.2334 62.6797 62.7002Q66.5781 61.165 71.0801 61.1631Q71.6484 61.1631 71.9199 61.1787L72.9766 61.2393L72.9766 17.2891Q72.9746 15.5498 72.1035 14.6797Q71.2344 13.8096 69.498 13.8076L55.7012 13.8076L55.7012 19.6924Q55.7012 19.8867 55.6328 20.0527Q55.5625 20.2178 55.4258 20.3545Q55.2891 20.4912 55.125 20.5596Q54.959 20.6279 54.7637 20.6279L21.1191 20.6279Q20.6504 20.6279 20.416 20.3945Q20.1836 20.1602 20.1836 19.6924L20.1836 13.8076L6.35352 13.8066Q4.62305 13.8223 3.75391 14.6953ZM6.35352 14.8066C4.99023 14.8193 3.88867 15.9238 3.87891 17.2881L3.87891 96.5488C3.88086 97.915 4.98633 99.0244 6.35352 99.0293L52.4414 99.0293C52.1777 98.7021 51.9258 98.3691 51.6816 98.0293C48.416 93.4902 46.8379 87.9365 47.2461 82.333C47.6855 76.3115 50.3867 70.6787 54.8066 66.5664C59.2031 62.4766 64.9766 60.1924 70.9766 60.1631C71.0117 60.1631 71.0449 60.1631 71.0781 60.1631C71.3789 60.1631 71.6777 60.1631 71.9766 60.1797L71.9766 17.2891C71.9746 15.9199 70.8652 14.8096 69.4961 14.8076L56.7012 14.8076L56.7012 15.8076L56.7012 19.6924C56.7012 20.2051 56.4961 20.6982 56.1328 21.0615C55.7715 21.4248 55.2773 21.6279 54.7637 21.6279L21.1191 21.6279C20.0508 21.6279 19.1836 20.7617 19.1836 19.6924L19.1836 14.8076L6.35352 14.8066Z" fill="#000000" fill-opacity="1.000000" fill-rule="evenodd"/>
	<path id="Vector" d="M54.7656 21.627L21.1191 21.627C20.0508 21.627 19.1836 20.7607 19.1836 19.6904L19.1836 8.25684C19.1836 7.1875 20.0508 6.32031 21.1191 6.32031L30.3711 6.32031C30.8047 3.93652 32.3359 1.89648 34.5039 0.8125C36.6719 -0.270508 39.2227 -0.270508 41.3887 0.8125C43.5566 1.89648 45.0879 3.93652 45.5215 6.32031L54.7656 6.32031C55.2793 6.32031 55.7715 6.52441 56.1348 6.88672C56.498 7.25 56.7012 7.74316 56.7012 8.25684L56.7012 19.6904C56.7012 20.7607 55.834 21.627 54.7656 21.627L54.7656 21.627ZM23.0566 17.7549L52.8281 17.7549L52.8281 10.1924L43.6699 10.1924C43.1211 10.1953 42.5977 9.96582 42.2285 9.56055C41.8594 9.15527 41.6797 8.61328 41.7324 8.06836C41.7461 7.94434 41.752 7.82617 41.752 7.69238C41.7188 6.34863 40.9824 5.12109 39.8125 4.45898C38.6426 3.79688 37.2109 3.79688 36.041 4.45898C34.8711 5.12109 34.1348 6.34863 34.1016 7.69238C34.1016 7.81934 34.1016 7.93457 34.1191 8.06836L34.1211 8.06836C34.1738 8.61328 33.9941 9.15527 33.625 9.56055C33.2559 9.96582 32.7324 10.1953 32.1836 10.1924L23.0566 10.1924L23.0566 17.7549Z" fill="#FFFFFF" fill-opacity="1.000000" fill-rule="nonzero"/>
	<path id="Vector" d="M30.3711 6.32031L21.1191 6.32031C20.0508 6.32031 19.1836 7.1875 19.1836 8.25684L19.1836 19.6904C19.1836 20.7607 20.0508 21.627 21.1191 21.627L54.7656 21.627C55.834 21.627 56.7012 20.7607 56.7012 19.6904L56.7012 8.25684C56.7012 7.74316 56.498 7.25 56.1348 6.88672C55.7715 6.52441 55.2793 6.32031 54.7656 6.32031L45.5215 6.32031C45.0879 3.93652 43.5566 1.89648 41.3887 0.8125C39.2227 -0.270508 36.6719 -0.270508 34.5039 0.8125C32.3359 1.89648 30.8047 3.93652 30.3711 6.32031ZM54.7656 20.627L21.1191 20.627Q20.6523 20.627 20.418 20.3936Q20.1836 20.1592 20.1836 19.6904L20.1836 8.25684Q20.1836 7.78809 20.418 7.55371Q20.6523 7.32031 21.1191 7.32031L31.207 7.32031L31.3555 6.49902Q31.6543 4.85547 32.5508 3.6582Q33.4512 2.45703 34.9512 1.70703Q36.4492 0.958008 37.9453 0.958008Q39.4434 0.958008 40.9414 1.70703Q42.4414 2.45703 43.3418 3.65723Q44.2383 4.85449 44.5371 6.49902L44.6875 7.32031L54.7656 7.32031Q54.9609 7.32031 55.125 7.38867Q55.291 7.45703 55.4277 7.59375Q55.5645 7.73145 55.6328 7.89648Q55.7012 8.0625 55.7012 8.25684L55.7012 19.6904Q55.7012 20.1592 55.4688 20.3936Q55.2344 20.627 54.7656 20.627L54.7656 20.627ZM22.0566 18.7549L53.8281 18.7549L53.8281 9.19238L43.6699 9.19238Q43.4512 9.19434 43.2715 9.1123Q43.1035 9.03613 42.9668 8.88672Q42.8281 8.73438 42.7676 8.55566Q42.707 8.37402 42.7285 8.16602Q42.752 7.92285 42.752 7.69238L42.752 7.68066L42.752 7.66797Q42.7168 6.30078 42.1055 5.28125Q41.4941 4.26172 40.3047 3.58887Q39.1152 2.91504 37.9258 2.91504Q36.7383 2.91602 35.5488 3.58887Q34.3633 4.25977 33.75 5.27637Q33.1367 6.29785 33.1016 7.66699L33.1016 7.67969L33.1016 7.69238Q33.1016 7.99609 33.127 8.19629Q33.1406 8.38281 33.0879 8.54688Q33.0273 8.73047 32.8848 8.8877Q32.7441 9.04102 32.5703 9.11719Q32.3965 9.19434 32.1895 9.19336L22.0566 9.19238L22.0566 18.7549ZM34.1211 8.44629C34.1328 8.32129 34.1328 8.19434 34.1211 8.06836L34.1191 8.06836C34.1016 7.93457 34.1016 7.81934 34.1016 7.69238C34.1035 7.59375 34.1094 7.49512 34.1191 7.39746C34.1309 7.28613 34.1465 7.17676 34.168 7.06836C34.377 5.97559 35.0547 5.0166 36.041 4.45898C37.2109 3.79688 38.6426 3.79688 39.8125 4.45898C40.9824 5.12109 41.7188 6.34863 41.752 7.69238C41.752 7.82617 41.7461 7.94434 41.7324 8.06836C41.6797 8.61328 41.8594 9.15527 42.2285 9.56055C42.5977 9.96582 43.1211 10.1953 43.6699 10.1924L52.8281 10.1924L52.8281 17.7549L23.0566 17.7549L23.0566 17.748L23.0566 11.1924L23.0566 10.1924L32.1836 10.1924C32.7324 10.1953 33.2559 9.96582 33.625 9.56055C33.7598 9.41309 33.8691 9.24609 33.9512 9.06836C34.041 8.87207 34.0996 8.66211 34.1211 8.44629Z" fill="#000000" fill-opacity="1.000000" fill-rule="evenodd"/>
	<path id="Vector" d="M11.2695 94.082C10.2012 94.082 9.33398 93.2148 9.33398 92.1455L9.33398 21.6846C9.33398 20.6143 10.2012 19.748 11.2695 19.748C12.3398 19.748 13.207 20.6143 13.207 21.6846L13.207 92.1455C13.207 92.6592 13.002 93.1514 12.6406 93.5156C12.2773 93.8779 11.7832 94.082 11.2695 94.082Z" fill="#6D95FC" fill-opacity="1.000000" fill-rule="nonzero"/>
	<path id="Vector" d="M9.33398 92.1455C9.33398 93.2148 10.2012 94.082 11.2695 94.082C11.7832 94.082 12.2773 93.8779 12.6406 93.5156C13.002 93.1514 13.207 92.6592 13.207 92.1455L13.207 21.6846C13.207 20.6143 12.3398 19.748 11.2695 19.748C10.2012 19.748 9.33398 20.6143 9.33398 21.6846L9.33398 92.1455ZM10.4023 92.5049Q10.334 92.3398 10.334 92.1455L10.334 21.6846Q10.334 21.4893 10.4023 21.3232Q10.4707 21.1582 10.6074 21.0225Q10.7441 20.8857 10.9102 20.8174Q11.0762 20.748 11.2695 20.748Q11.4648 20.748 11.6309 20.8174Q11.7969 20.8857 11.9336 21.0225Q12.0684 21.1582 12.1387 21.3232Q12.207 21.4893 12.207 21.6846L12.207 92.1455Q12.207 92.2383 12.1895 92.3271Q12.1719 92.417 12.1348 92.5039Q12.1016 92.585 12.0547 92.6572Q12.002 92.7383 11.9316 92.8086Q11.873 92.8682 11.8066 92.915Q11.7227 92.9717 11.6289 93.0107Q11.543 93.0469 11.4512 93.0645Q11.3633 93.082 11.2695 93.082Q11.0762 93.082 10.9121 93.0137Q10.7461 92.9453 10.6074 92.8076Q10.4707 92.6709 10.4023 92.5049Z" fill="#000000" fill-opacity="1.000000" fill-rule="evenodd"/>
	<path id="Vector" d="M64.5996 65.0098C63.5312 65.0098 62.6641 64.1426 62.6641 63.0732L62.6641 21.6826C62.6641 20.6133 63.5312 19.7461 64.5996 19.7461C65.6699 19.7461 66.5371 20.6133 66.5371 21.6826L66.5371 63.0732C66.5371 63.5869 66.332 64.0791 65.9707 64.4424C65.6074 64.8057 65.1133 65.0098 64.5996 65.0098Z" fill="#6D95FC" fill-opacity="1.000000" fill-rule="nonzero"/>
	<path id="Vector" d="M64.5996 65.0098C63.5312 65.0098 62.6641 64.1426 62.6641 63.0732L62.6641 21.6826C62.6641 20.6133 63.5312 19.7461 64.5996 19.7461C65.6699 19.7461 66.5371 20.6133 66.5371 21.6826L66.5371 63.0732C66.5371 63.5869 66.332 64.0791 65.9707 64.4424C65.6074 64.8057 65.1133 65.0098 64.5996 65.0098ZM63.7324 63.4326Q63.6641 63.2666 63.6641 63.0732L63.6641 21.6826Q63.6641 21.4893 63.7324 21.3232Q63.8008 21.1582 63.9375 21.0205Q64.0762 20.8828 64.2422 20.8145Q64.4062 20.7461 64.5996 20.7461Q64.7949 20.7461 64.959 20.8145Q65.125 20.8828 65.2617 21.0205Q65.4004 21.1582 65.4688 21.3232Q65.5371 21.4893 65.5371 21.6826L65.5371 63.0732Q65.5371 63.166 65.5195 63.2549Q65.502 63.3447 65.4648 63.4316Q65.4297 63.5195 65.377 63.5957Q65.3281 63.6709 65.2637 63.7354Q65.1973 63.8008 65.123 63.8506Q65.0469 63.9023 64.959 63.9385Q64.873 63.9746 64.7812 63.9922Q64.6934 64.0098 64.5996 64.0098Q64.4062 64.0098 64.2422 63.9414Q64.0762 63.873 63.9375 63.7354Q63.8008 63.5977 63.7324 63.4326Z" fill="#000000" fill-opacity="1.000000" fill-rule="evenodd"/>
	<path id="Vector" d="M56.293 69.7705L18.625 69.7705C17.5566 69.7705 16.6895 68.9043 16.6895 67.834C16.6895 66.7646 17.5566 65.8975 18.625 65.8975L56.293 65.8975C57.3613 65.8975 58.2285 66.7646 58.2285 67.834C58.2285 68.9043 57.3613 69.7705 56.293 69.7705Z" fill="#6D95FC" fill-opacity="1.000000" fill-rule="nonzero"/>
	<path id="Vector" d="M18.625 69.7705L56.293 69.7705C57.3613 69.7705 58.2285 68.9043 58.2285 67.834C58.2285 66.7646 57.3613 65.8975 56.293 65.8975L18.625 65.8975C17.5566 65.8975 16.6895 66.7646 16.6895 67.834C16.6895 68.9043 17.5566 69.7705 18.625 69.7705ZM56.293 68.7705L18.625 68.7705Q18.4316 68.7705 18.2656 68.7012Q18.0996 68.6328 17.9629 68.4961Q17.8262 68.3594 17.7578 68.1953Q17.6895 68.0293 17.6895 67.834Q17.6895 67.6406 17.7578 67.4746Q17.8262 67.3096 17.9629 67.1719Q18.1016 67.0342 18.2676 66.9658Q18.4316 66.8975 18.625 66.8975L56.293 66.8975Q56.4863 66.8975 56.6504 66.9658Q56.8164 67.0342 56.9551 67.1719Q57.0918 67.3096 57.1602 67.4746Q57.2285 67.6406 57.2285 67.834Q57.2285 68.0283 57.1602 68.1953Q57.0898 68.3594 56.9551 68.4961Q56.8184 68.6328 56.6523 68.7012Q56.4863 68.7705 56.293 68.7705Z" fill="#000000" fill-opacity="1.000000" fill-rule="evenodd"/>
	<path id="Vector" d="M50.9375 77.2617L18.627 77.2617C17.5586 77.2617 16.6914 76.3945 16.6914 75.3252C16.6914 74.2549 17.5586 73.3887 18.627 73.3887L50.9375 73.3887C52.0078 73.3887 52.875 74.2549 52.875 75.3252C52.875 76.3945 52.0078 77.2617 50.9375 77.2617Z" fill="#6D95FC" fill-opacity="1.000000" fill-rule="nonzero"/>
	<path id="Vector" d="M18.627 77.2617L50.9375 77.2617C52.0078 77.2617 52.875 76.3945 52.875 75.3252C52.875 74.2549 52.0078 73.3887 50.9375 73.3887L18.627 73.3887C17.5586 73.3887 16.6914 74.2549 16.6914 75.3252C16.6914 76.3945 17.5586 77.2617 18.627 77.2617ZM50.9375 76.2617L18.627 76.2617Q18.4336 76.2617 18.2695 76.1934Q18.1035 76.125 17.9648 75.9873Q17.8281 75.8496 17.7598 75.6846Q17.6914 75.5186 17.6914 75.3252Q17.6914 75.1299 17.7598 74.9639Q17.8281 74.7988 17.9648 74.6631Q18.1016 74.5264 18.2676 74.458Q18.4336 74.3887 18.627 74.3887L50.9375 74.3887Q51.1328 74.3887 51.2988 74.458Q51.4648 74.5264 51.6016 74.6631Q51.7363 74.7988 51.8066 74.9639Q51.875 75.1299 51.875 75.3252Q51.875 75.5186 51.8066 75.6846Q51.7383 75.8496 51.5996 75.9873Q51.4629 76.125 51.2969 76.1934Q51.1328 76.2617 50.9375 76.2617Z" fill="#000000" fill-opacity="1.000000" fill-rule="evenodd"/>
	<path id="Vector" d="M49.1641 84.751L18.625 84.751C17.5566 84.751 16.6895 83.8838 16.6895 82.8145C16.6895 81.7451 17.5566 80.8779 18.625 80.8779L49.1641 80.8779C50.2324 80.8779 51.0996 81.7451 51.0996 82.8145C51.0996 83.8838 50.2324 84.751 49.1641 84.751Z" fill="#6D95FC" fill-opacity="1.000000" fill-rule="nonzero"/>
	<path id="Vector" d="M18.625 84.751L49.1641 84.751C50.2324 84.751 51.0996 83.8838 51.0996 82.8145C51.0996 81.7451 50.2324 80.8779 49.1641 80.8779L18.625 80.8779C17.5566 80.8779 16.6895 81.7451 16.6895 82.8145C16.6895 83.8838 17.5566 84.751 18.625 84.751ZM49.1641 83.751L18.625 83.751Q18.4316 83.751 18.2676 83.6826Q18.1016 83.6143 17.9629 83.4766Q17.8262 83.3389 17.7578 83.1738Q17.6895 83.0078 17.6895 82.8145Q17.6895 82.6211 17.7578 82.4551Q17.8262 82.29 17.9629 82.1523Q18.1016 82.0146 18.2676 81.9463Q18.4316 81.8779 18.625 81.8779L49.1641 81.8779Q49.3574 81.8779 49.5234 81.9463Q49.6895 82.0146 49.8262 82.1523Q49.9629 82.29 50.0312 82.4551Q50.0996 82.6211 50.0996 82.8145Q50.0996 83.0078 50.0312 83.1738Q49.9629 83.3389 49.8262 83.4766Q49.6895 83.6143 49.5234 83.6826Q49.3574 83.751 49.1641 83.751Z" fill="#000000" fill-opacity="1.000000" fill-rule="evenodd"/>
	<path id="Vector" d="M50.0293 92.2393L18.627 92.2393C17.5586 92.2393 16.6914 91.3721 16.6914 90.3027C16.6914 89.2334 17.5586 88.3662 18.627 88.3662L50.0293 88.3662C51.0996 88.3662 51.9648 89.2334 51.9648 90.3027C51.9648 91.3721 51.0996 92.2393 50.0293 92.2393Z" fill="#6D95FC" fill-opacity="1.000000" fill-rule="nonzero"/>
	<path id="Vector" d="M18.627 92.2393L50.0293 92.2393C51.0996 92.2393 51.9648 91.3721 51.9648 90.3027C51.9648 89.2334 51.0996 88.3662 50.0293 88.3662L18.627 88.3662C17.5586 88.3662 16.6914 89.2334 16.6914 90.3027C16.6914 91.3721 17.5586 92.2393 18.627 92.2393ZM50.0293 91.2393L18.627 91.2393Q18.4336 91.2393 18.2695 91.1709Q18.1035 91.1025 17.9648 90.9648Q17.8281 90.8271 17.7598 90.6621Q17.6914 90.4961 17.6914 90.3027Q17.6914 90.1094 17.7598 89.9434Q17.8281 89.7783 17.9648 89.6406Q18.1035 89.5029 18.2695 89.4346Q18.4336 89.3662 18.627 89.3662L50.0293 89.3662Q50.2246 89.3662 50.3906 89.4355Q50.5547 89.5039 50.6914 89.6406Q50.8281 89.7773 50.8965 89.9424Q50.9648 90.1084 50.9648 90.3027Q50.9648 90.4971 50.8965 90.6631Q50.8281 90.8281 50.6914 90.9648Q50.5547 91.1016 50.3906 91.1699Q50.2246 91.2393 50.0293 91.2393Z" fill="#000000" fill-opacity="1.000000" fill-rule="evenodd"/>
	<path id="Vector" d="M71.0957 107.961C64.7559 107.961 58.6738 105.442 54.1914 100.959C49.707 96.4756 47.1895 90.3955 47.1895 84.0547C47.1895 77.7148 49.709 71.6338 54.1914 67.1514C58.6758 62.6689 64.7559 60.1504 71.0957 60.1504C77.4375 60.1514 83.5156 62.6699 88 67.1533C92.4824 71.6377 95 77.7188 95 84.0586C94.9922 90.3955 92.4707 96.4727 87.9902 100.953C83.5078 105.435 77.4316 107.955 71.0957 107.961ZM71.0957 64.0254C65.7812 64.0254 60.6875 66.1367 56.9297 69.8926C53.1719 73.6494 51.0625 78.7451 51.0625 84.0576C51.0625 89.3711 53.1719 94.4658 56.9297 98.2236C60.6875 101.979 65.7812 104.091 71.0957 104.091C76.4082 104.091 81.5039 101.979 85.2598 98.2236C89.0156 94.4658 91.127 89.3711 91.127 84.0576C91.1191 78.748 89.0059 73.6582 85.25 69.9053C81.4961 66.1514 76.4043 64.04 71.0957 64.0352L71.0957 64.0254Z" fill="#FFFFFF" fill-opacity="1.000000" fill-rule="nonzero"/>
	<path id="Vector" d="M71.0957 107.961C64.7559 107.961 58.6738 105.442 54.1914 100.959C49.707 96.4756 47.1895 90.3955 47.1895 84.0547C47.1895 77.7148 49.709 71.6338 54.1914 67.1514C58.6758 62.6689 64.7559 60.1504 71.0957 60.1504C77.4375 60.1514 83.5156 62.6699 88 67.1533C92.4824 71.6377 95 77.7188 95 84.0586C94.9922 90.3955 92.4707 96.4727 87.9902 100.953C83.5078 105.435 77.4316 107.955 71.0957 107.961ZM62.3086 105.286Q58.2559 103.609 54.8984 100.252Q51.5449 96.8984 49.8672 92.8516Q48.1895 88.8008 48.1895 84.0547Q48.1895 79.3105 49.8672 75.2607Q51.5449 71.2129 54.8984 67.8594Q58.2539 64.5039 62.3047 62.8271Q66.3535 61.1504 71.0957 61.1504Q75.8379 61.1514 79.8867 62.8271Q83.9375 64.5049 87.293 67.8604Q90.6445 71.2129 92.3203 75.2598Q94 79.3115 94 84.0586Q93.9941 88.8018 92.3145 92.8496Q90.6348 96.8945 87.2832 100.246Q83.9277 103.602 79.877 105.28Q75.832 106.957 71.0938 106.961Q66.3535 106.961 62.3086 105.286ZM63.0273 64.5635Q59.3047 66.1035 56.2227 69.1855L56.2227 69.1855Q53.1426 72.2646 51.6035 75.9824Q50.0625 79.7012 50.0625 84.0576Q50.0625 88.415 51.6035 92.1338Q53.1426 95.8506 56.2227 98.9307Q59.3047 102.013 63.0273 103.553Q66.7422 105.091 71.0957 105.091Q75.4492 105.091 79.168 103.551Q82.8867 102.011 85.9668 98.9307Q89.0488 95.8477 90.5898 92.127Q92.127 88.4111 92.127 84.0576Q92.1211 79.7031 90.5781 75.9873Q89.0352 72.2734 85.957 69.1973Q82.8789 66.1201 79.1621 64.5791Q75.877 63.2178 72.0957 63.0566L72.0957 63.0254L71.0957 63.0254Q66.7422 63.0254 63.0273 64.5635ZM70.0957 64.0508C70.4277 64.0342 70.7598 64.0254 71.0957 64.0254L71.0957 64.0352C76.4043 64.04 81.4961 66.1514 85.25 69.9053C89.0059 73.6582 91.1191 78.748 91.127 84.0576C91.127 89.3711 89.0156 94.4658 85.2598 98.2236C81.5039 101.979 76.4082 104.091 71.0957 104.091C65.7812 104.091 60.6875 101.979 56.9297 98.2236C53.1719 94.4658 51.0625 89.3711 51.0625 84.0576C51.0625 78.7451 53.1719 73.6494 56.9297 69.8926C60.4512 66.373 65.1465 64.2979 70.0957 64.0508Z" fill="#000000" fill-opacity="1.000000" fill-rule="evenodd"/>
	<path id="Vector" d="M65.8555 92.4141C65.3418 92.4131 64.8516 92.209 64.4883 91.8457L62.1426 89.5029L62.1426 89.502C61.7793 89.1387 61.5762 88.6465 61.5762 88.1328C61.5762 87.6191 61.7793 87.126 62.1445 86.7637C62.9004 86.0078 64.127 86.0078 64.8828 86.7637L65.8516 87.7324L77.3027 76.2832C78.0625 75.5605 79.2637 75.5752 80.0059 76.3184C80.748 77.0605 80.7637 78.2607 80.041 79.0215L67.2109 91.8496C66.8516 92.209 66.3652 92.4111 65.8555 92.4141Z" fill="#6D95FC" fill-opacity="1.000000" fill-rule="nonzero"/>
	<path id="Vector" d="M65.8477 87.7285L64.8828 86.7637C64.127 86.0078 62.9004 86.0078 62.1445 86.7637C61.7793 87.126 61.5762 87.6191 61.5762 88.1328C61.5762 88.6465 61.7793 89.1387 62.1426 89.502L62.1426 89.5029L64.4883 91.8457C64.8516 92.209 65.3418 92.4131 65.8555 92.4141C66.3652 92.4111 66.8516 92.209 67.2109 91.8496L80.041 79.0215C80.7637 78.2607 80.748 77.0605 80.0059 76.3184C79.2637 75.5752 78.0625 75.5605 77.3027 76.2832L65.8555 87.7285L65.8516 87.7324L65.8477 87.7285ZM78 77.001L65.8516 89.1465L64.1758 87.4707Q64.0391 87.335 63.875 87.2656Q63.709 87.1963 63.5137 87.1963Q63.3203 87.1963 63.1543 87.2646Q62.9883 87.334 62.8496 87.4717Q62.7852 87.5371 62.7344 87.6123Q62.6836 87.6885 62.6465 87.7744Q62.6113 87.8594 62.5938 87.9482Q62.5762 88.0391 62.5762 88.1328Q62.5762 88.2295 62.5957 88.3223Q62.6133 88.4092 62.6465 88.4922Q62.6836 88.5791 62.7344 88.6553Q62.7852 88.7305 62.8496 88.7949L62.8496 88.7949L65.1953 91.1377L65.1973 91.1396Q65.2617 91.2051 65.3379 91.2549Q65.4141 91.3066 65.5 91.3428Q65.6387 91.4004 65.7812 91.4111Q65.8145 91.4141 65.8496 91.4141Q65.9453 91.4141 66.0391 91.3945Q66.123 91.376 66.2051 91.3418Q66.3066 91.3008 66.3926 91.2383Q66.4512 91.1953 66.5039 91.1426L79.3223 78.3242Q79.4473 78.1904 79.5098 78.0322Q79.5762 77.8672 79.5723 77.6758Q79.5703 77.4834 79.502 77.3203Q79.4336 77.1592 79.2988 77.0254Q79.1641 76.8916 79.0039 76.8223Q78.8398 76.7539 78.6484 76.751Q78.457 76.749 78.291 76.8135Q78.1328 76.876 78 77.001Z" fill="#000000" fill-opacity="1.000000" fill-rule="evenodd"/>
	<path id="Vector" d="M71.0957 101.844C66.3789 101.844 61.8574 99.9717 58.5234 96.6357C55.1895 93.3018 53.3164 88.7803 53.3164 84.0645C53.3164 79.3496 55.1895 74.8271 58.5234 71.4932C61.8594 68.1582 66.3809 66.2861 71.0977 66.2861C75.8125 66.2871 80.334 68.1602 83.668 71.4951C87.002 74.8301 88.875 79.3525 88.873 84.0674C88.8672 88.7803 86.9922 93.2998 83.6602 96.6318C80.3262 99.9648 75.8086 101.839 71.0957 101.844L71.0957 101.844ZM71.0957 70.1621C67.4082 70.1621 63.8691 71.627 61.2617 74.2354C58.6543 76.8418 57.1895 80.3799 57.1895 84.0674C57.1895 87.7559 58.6543 91.293 61.2617 93.9014C63.8691 96.5078 67.4082 97.9736 71.0957 97.9736C74.7832 97.9736 78.3203 96.5078 80.9277 93.9014C83.5352 91.293 85.002 87.7559 85.002 84.0674C84.9961 80.3809 83.5312 76.8457 80.9238 74.2393C78.3164 71.6318 74.7812 70.166 71.0957 70.1621Z" fill="#FFFFFF" fill-opacity="1.000000" fill-rule="nonzero"/>
	<path id="Vector" d="M71.0957 101.844C75.8086 101.838 80.3262 99.9639 83.6602 96.6318C86.9922 93.2998 88.8672 88.7803 88.873 84.0674C88.875 79.3525 87.002 74.8301 83.668 71.4951C80.334 68.1602 75.8125 66.2871 71.0977 66.2861C66.3809 66.2861 61.8594 68.1582 58.5234 71.4932C55.1895 74.8271 53.3164 79.3496 53.3164 84.0645C53.3164 88.7803 55.1895 93.3018 58.5234 96.6357C61.8574 99.9717 66.3789 101.844 71.0957 101.844L71.0957 101.844L71.0957 101.239L71.0957 101.844ZM71.0957 100.844Q74.5684 100.84 77.5332 99.6094Q80.498 98.3799 82.9531 95.9248Q85.4102 93.4678 86.6406 90.5029Q87.8691 87.5391 87.873 84.0674Q87.875 80.5947 86.6484 77.6309Q85.4199 74.6621 82.9609 72.2021Q80.5039 69.7451 77.5371 68.5156Q74.5723 67.2871 71.0977 67.2861Q67.6211 67.2861 64.6523 68.5156Q61.6875 69.7441 59.2305 72.2002Q56.7715 74.6592 55.543 77.627Q54.3164 80.5918 54.3164 84.0645Q54.3164 87.543 55.5469 90.5127Q56.7754 93.4746 59.2305 95.9287L59.2305 95.9287Q61.6855 98.3838 64.6484 99.6133Q67.6152 100.844 71.0938 100.844L71.0957 100.844ZM65.373 70.2529Q62.7383 71.3447 60.5547 73.5283L60.5547 73.5283Q58.373 75.71 57.2812 78.3428Q56.1895 80.9795 56.1895 84.0674Q56.1895 87.1523 57.2793 89.7852Q58.3711 92.4229 60.5547 94.6084Q62.7383 96.792 65.377 97.8838Q68.0098 98.9736 71.0957 98.9736Q74.1816 98.9736 76.8184 97.8818Q79.4531 96.791 81.6348 94.6084Q83.8184 92.4248 84.9102 89.7881Q86.002 87.1543 86.002 84.0674Q85.998 80.9746 84.9004 78.3359Q83.8086 75.709 81.6309 73.5322Q79.4531 71.3545 76.8242 70.2617Q74.1875 69.165 71.0957 69.1621Q68.0078 69.1621 65.373 70.2529ZM71.0957 70.1621C67.4082 70.1621 63.8691 71.627 61.2617 74.2354C58.6543 76.8418 57.1895 80.3799 57.1895 84.0674C57.1895 87.7559 58.6543 91.293 61.2617 93.9014C63.8691 96.5078 67.4082 97.9736 71.0957 97.9736C74.7832 97.9736 78.3203 96.5078 80.9277 93.9014C83.5352 91.293 85.002 87.7559 85.002 84.0674C84.9961 80.3809 83.5312 76.8457 80.9238 74.2393C78.3164 71.6318 74.7812 70.166 71.0957 70.1621Z" fill="#000000" fill-opacity="1.000000" fill-rule="evenodd"/>
	<path id="Vector" d="M41.2891 62.4229L34.5801 62.4229C33.5117 62.4229 32.6445 61.5557 32.6445 60.4863L32.6445 56.1602C31.6348 55.7275 30.6816 55.1758 29.8027 54.5166L26.0566 56.6807L26.0547 56.6807C25.6113 56.9375 25.082 57.0078 24.5859 56.874C24.0898 56.7412 23.666 56.416 23.4102 55.9717L20.0547 50.1621C19.7969 49.7168 19.7285 49.1885 19.8613 48.6924C19.9941 48.1963 20.3184 47.7734 20.7637 47.5166L24.5078 45.3555C24.377 44.2646 24.377 43.1611 24.5078 42.0703L20.7637 39.9092C20.3184 39.6523 19.9941 39.2295 19.8613 38.7334C19.7285 38.2373 19.7969 37.708 20.0547 37.2627L23.4102 31.4531C23.666 31.0088 24.0898 30.6846 24.5859 30.5508C25.082 30.418 25.6113 30.4883 26.0547 30.7451L29.8008 32.9082L29.8027 32.9082C30.6797 32.249 31.6348 31.6973 32.6445 31.2646L32.6445 26.9375C32.6445 25.8672 33.5117 25.001 34.5801 25.001L41.291 25.001L41.2891 25.001C41.8027 25.001 42.2949 25.2051 42.6582 25.5684C43.0215 25.9307 43.2266 26.4238 43.2266 26.9375L43.2266 31.2637L43.2266 31.2627C44.2383 31.6934 45.1914 32.2461 46.0703 32.9062L49.8184 30.7441C50.2617 30.4883 50.791 30.418 51.2871 30.5508C51.7832 30.6836 52.207 31.0088 52.4629 31.4531L55.8184 37.2627C56.0742 37.708 56.1445 38.2373 56.0117 38.7334C55.8789 39.2295 55.5527 39.6523 55.1094 39.9092L51.3633 42.0703L51.3613 42.0703C51.4297 42.6143 51.4609 43.1631 51.4609 43.7119C51.4609 44.2607 51.4297 44.8096 51.3633 45.3555L55.1094 47.5166C55.5527 47.7734 55.8789 48.1953 56.0117 48.6924C56.1445 49.1885 56.0742 49.7168 55.8184 50.1621L52.4629 55.9717C51.9277 56.8965 50.7441 57.2129 49.8184 56.6777L46.0703 54.5146L46.0703 54.5146C45.1934 55.1768 44.2383 55.7285 43.2266 56.1602L43.2266 60.4863C43.2266 60.999 43.0215 61.4912 42.6582 61.8555C42.2949 62.2188 41.8027 62.4229 41.2891 62.4229ZM36.5156 58.5498L39.3535 58.5498L39.3535 54.8076C39.3535 53.9531 39.9141 53.1992 40.7305 52.9531C42.1523 52.5215 43.457 51.7686 44.541 50.7529C45.1621 50.1689 46.0938 50.0605 46.832 50.4863L50.0762 52.3604L51.4941 49.9033L48.2539 48.0322C47.5137 47.6055 47.1426 46.7451 47.3359 45.9141C47.6719 44.4648 47.6719 42.958 47.3359 41.5088C47.1426 40.6787 47.5156 39.8203 48.2539 39.3926L51.4941 37.5225L50.0762 35.0654L46.832 36.9355C46.0938 37.3633 45.1641 37.2559 44.541 36.6719C43.4551 35.6562 42.1523 34.9023 40.7305 34.4697C39.9141 34.2236 39.3535 33.4697 39.3535 32.6152L39.3535 28.874L36.5176 28.874L36.5176 32.6162L36.5176 32.6152C36.5176 33.4697 35.959 34.2227 35.1406 34.4697C33.7207 34.9023 32.416 35.6562 31.332 36.6719C30.7109 37.2568 29.7793 37.3652 29.041 36.9385L25.7969 35.0654L24.3789 37.5225L27.6191 39.3926C28.3574 39.8203 28.7305 40.6787 28.5371 41.5088C28.1973 42.958 28.1973 44.4658 28.5371 45.9141C28.7305 46.7451 28.3574 47.6055 27.6191 48.0322L24.3789 49.9033L25.7969 52.3604L29.041 50.4863C29.7793 50.0605 30.7109 50.1689 31.332 50.7529C32.416 51.7686 33.7207 52.5225 35.1406 52.9561C35.959 53.2031 36.5176 53.9561 36.5176 54.8096L36.5156 58.5498Z" fill="#6D95FC" fill-opacity="1.000000" fill-rule="nonzero"/>
	<path id="Vector" d="M43.2266 31.2627L43.2266 26.9375C43.2266 26.4238 43.0215 25.9307 42.6582 25.5684C42.2969 25.2051 41.8027 25.001 41.291 25.001L34.5801 25.001C33.5117 25.001 32.6445 25.8672 32.6445 26.9375L32.6445 31.2646C31.6348 31.6973 30.6797 32.249 29.8027 32.9082L29.8008 32.9082L26.0547 30.7451C25.6113 30.4883 25.082 30.418 24.5859 30.5508C24.0898 30.6846 23.666 31.0088 23.4102 31.4531L20.0547 37.2627C19.7969 37.708 19.7285 38.2373 19.8613 38.7334C19.9941 39.2295 20.3184 39.6523 20.7637 39.9092L24.5078 42.0703C24.377 43.1611 24.377 44.2646 24.5078 45.3555L20.7637 47.5166C20.3184 47.7734 19.9941 48.1963 19.8613 48.6924C19.7285 49.1885 19.7969 49.7168 20.0547 50.1621L23.4102 55.9717C23.666 56.416 24.0898 56.7412 24.5859 56.874C25.082 57.0078 25.6113 56.9375 26.0547 56.6807L26.0566 56.6807L29.8027 54.5166C30.6816 55.1758 31.6348 55.7275 32.6445 56.1602L32.6445 60.4863C32.6445 61.5557 33.5117 62.4229 34.5801 62.4229L41.2891 62.4229C41.8027 62.4229 42.2949 62.2188 42.6582 61.8555C43.0215 61.4912 43.2266 60.999 43.2266 60.4863L43.2266 56.1602C44.2383 55.7285 45.1934 55.1768 46.0703 54.5146L46.0703 54.5146L49.8184 56.6777C50.7441 57.2129 51.9277 56.8965 52.4629 55.9717L55.8184 50.1621C56.0742 49.7168 56.1445 49.1885 56.0117 48.6924C55.8789 48.1953 55.5527 47.7734 55.1094 47.5166L51.3633 45.3555C51.4297 44.8096 51.4609 44.2607 51.4609 43.7119C51.4609 43.498 51.457 43.2842 51.4473 43.0703C51.4316 42.7354 51.4023 42.4023 51.3613 42.0703L51.3633 42.0703L51.3633 42.0703L55.1094 39.9092C55.5527 39.6523 55.8789 39.2295 56.0117 38.7334C56.1445 38.2373 56.0742 37.708 55.8184 37.2627L52.4629 31.4531C52.207 31.0088 51.7832 30.6836 51.2871 30.5508C50.791 30.418 50.2617 30.4883 49.8184 30.7441L46.0703 32.9062C45.1914 32.2471 44.2383 31.6943 43.2285 31.2637L43.2266 31.2627ZM43.2266 31.2637L42.2266 31.2637L42.2266 26.9375Q42.2266 26.7432 42.1562 26.5771Q42.0879 26.4121 41.9512 26.2754Q41.8145 26.1387 41.6504 26.0703Q41.4844 26.001 41.291 26.001L41.2891 26.001L34.5801 26.001Q34.1113 26.001 33.8789 26.2354Q33.6445 26.4688 33.6445 26.9375L33.6445 31.9248L33.0371 32.1846Q32.2441 32.5244 31.5098 32.9639Q30.9375 33.3057 30.4043 33.708L30.1367 33.9082L29.5332 33.9082L25.5547 31.6104Q25.3867 31.5127 25.209 31.4902Q25.0312 31.4668 24.8438 31.5166Q24.6582 31.5664 24.5176 31.6748Q24.373 31.7842 24.2754 31.9531L20.9199 37.7627Q20.8223 37.9336 20.7988 38.1143Q20.7773 38.29 20.8262 38.4746Q20.877 38.6611 20.9863 38.8027Q21.0957 38.9453 21.2637 39.043L25.5801 41.5342L25.502 42.1904Q25.4082 42.9531 25.4082 43.7148Q25.4082 44.4746 25.502 45.2344L25.5801 45.8906L21.2637 48.3818Q21.0938 48.4805 20.9844 48.624Q20.877 48.7656 20.8262 48.9512Q20.7773 49.1367 20.7988 49.3125Q20.8223 49.4922 20.9199 49.6621L24.2754 55.4717Q24.373 55.6406 24.5176 55.751Q24.6582 55.8584 24.8438 55.9082Q25.0312 55.958 25.207 55.9355Q25.3867 55.9121 25.5547 55.8145L25.7871 55.6807L25.7871 55.6807L29.875 53.3203L30.4023 53.7168Q31.0137 54.1748 31.668 54.5547Q32.3301 54.9375 33.0391 55.2412L33.6445 55.501L33.6445 60.4863Q33.6445 60.9541 33.8789 61.1885Q34.1113 61.4229 34.5801 61.4229L41.2891 61.4229Q41.4863 61.4229 41.6523 61.3525Q41.8164 61.2842 41.9512 61.1494Q42.0918 61.0088 42.1602 60.8398Q42.2266 60.6758 42.2266 60.4863L42.2266 55.499L42.834 55.2402Q43.6172 54.9062 44.3438 54.4736Q44.9238 54.126 45.4688 53.7158L45.7344 53.5146L46.3398 53.5146L50.3184 55.8125Q50.7246 56.0469 51.0449 55.9609Q51.3633 55.875 51.5977 55.4717L54.9512 49.6631Q55.0508 49.4912 55.0723 49.3105Q55.0957 49.1357 55.0449 48.9512Q54.9961 48.7646 54.8867 48.6221Q54.7773 48.4795 54.6094 48.3828L50.293 45.8916L50.3711 45.2373Q50.4629 44.4707 50.4609 43.71Q50.4629 42.9443 50.3691 42.1934L50.2305 41.0703L51.0957 41.0703L54.6094 39.043Q54.7793 38.9453 54.8887 38.8018Q54.9961 38.6602 55.0449 38.4736Q55.0957 38.2891 55.0723 38.1123Q55.0508 37.9326 54.9512 37.7627L51.5977 31.9541Q51.5 31.7842 51.3555 31.6748Q51.2148 31.5664 51.0273 31.5166Q50.8438 31.4668 50.668 31.4893Q50.4883 31.5127 50.3164 31.6113L45.998 34.1016L45.4688 33.7051Q44.7324 33.1514 43.9316 32.7139Q43.3965 32.4219 42.834 32.1826L43.2266 31.2637ZM35.5156 59.5498L40.3535 59.5498L40.3535 54.8076Q40.3535 54.459 40.5195 54.2354Q40.6855 54.0107 41.0195 53.9102Q42.2188 53.5469 43.2754 52.9355Q44.3203 52.3301 45.2246 51.4824Q45.4785 51.2441 45.7559 51.2119Q46.0332 51.1797 46.332 51.3525L50.4414 53.7266L52.8613 49.5371L48.7539 47.166Q48.4531 46.9922 48.3418 46.7363Q48.2305 46.4805 48.3105 46.1426Q48.5957 44.9082 48.5918 43.6748Q48.5879 42.4785 48.3105 41.2832Q48.2324 40.9443 48.3418 40.6885Q48.4531 40.4326 48.7539 40.2588L52.8613 37.8887L50.4414 33.6992L46.332 36.0693Q46.0312 36.2441 45.7539 36.2119Q45.4785 36.1797 45.2246 35.9424Q44.3066 35.084 43.248 34.4736Q42.2051 33.873 41.0234 33.5127Q40.6855 33.4111 40.5176 33.1846Q40.3535 32.9609 40.3535 32.6152L40.3535 27.874L35.5176 27.874L35.5176 32.6162Q35.5176 32.9639 35.3496 33.1885Q35.1836 33.4121 34.8516 33.5127Q33.6602 33.876 32.6094 34.4824Q31.5586 35.0908 30.6484 35.9424Q30.3945 36.1816 30.1152 36.2139Q29.8398 36.2451 29.5391 36.0723L25.4316 33.6992L23.0117 37.8887L27.1191 40.2588Q27.4199 40.4326 27.5312 40.6885Q27.6406 40.9443 27.5625 41.2822Q27.2793 42.4961 27.2793 43.71Q27.2793 44.9258 27.5625 46.1416Q27.6426 46.4805 27.5312 46.7363Q27.4199 46.9922 27.1191 47.167L23.0117 49.5371L25.4316 53.7266L29.541 51.3525Q29.8398 51.1797 30.1172 51.2119Q30.3945 51.2441 30.6465 51.4814Q31.5703 52.3457 32.6367 52.958Q33.6758 53.5547 34.8496 53.9121Q35.1836 54.0137 35.3516 54.2383Q35.5176 54.4629 35.5176 54.8096L35.5156 59.5498ZM36.5176 32.6162C36.5156 33.4697 35.959 34.2227 35.1406 34.4697C33.7207 34.9023 32.416 35.6562 31.332 36.6719C30.7109 37.2568 29.7793 37.3652 29.041 36.9385L25.7969 35.0654L25.2969 35.9316L24.8789 36.6562L24.3789 37.5225L24.3809 37.5244L27.6191 39.3926C28.3574 39.8203 28.7305 40.6787 28.5371 41.5088C28.1973 42.958 28.1973 44.4658 28.5371 45.9141C28.7305 46.7451 28.3574 47.6055 27.6191 48.0322L25.2441 49.4033L24.3789 49.9033L24.8789 50.7695L25.2969 51.4941L25.7969 52.3604L29.041 50.4863C29.7793 50.0605 30.7109 50.1689 31.332 50.7529C32.416 51.7686 33.7207 52.5225 35.1406 52.9561C35.959 53.2031 36.5176 53.9561 36.5176 54.8096L36.5156 57.5498L36.5156 58.5498L38.3535 58.5498L39.3535 58.5498L39.3535 54.8076C39.3535 53.9531 39.9141 53.1992 40.7305 52.9531C42.1523 52.5215 43.457 51.7686 44.541 50.7529C45.1621 50.1689 46.0938 50.0605 46.832 50.4863L49.2109 51.8604L50.0762 52.3604L50.5762 51.4941L50.9941 50.7695L51.4941 49.9033L50.6289 49.4033L48.2539 48.0322C47.5137 47.6055 47.1426 46.7451 47.3359 45.9141C47.6719 44.4648 47.6719 42.958 47.3359 41.5088C47.1426 40.6787 47.5156 39.8203 48.2539 39.3926L50.6289 38.0225L51.4941 37.5225L50.9941 36.6562L50.0762 35.0654L46.832 36.9355C46.0938 37.3633 45.1641 37.2559 44.541 36.6719C43.4551 35.6562 42.1523 34.9023 40.7305 34.4697C39.9141 34.2236 39.3535 33.4697 39.3535 32.6152L39.3535 28.874L38.3535 28.874L37.5176 28.874L36.5176 28.874L36.5176 32.6162Z" fill="#000000" fill-opacity="1.000000" fill-rule="evenodd"/>
	<path id="Vector" d="M37.9355 51.292C35.9258 51.292 33.998 50.4922 32.5781 49.0703C31.1562 47.6494 30.3594 45.7217 30.3594 43.7119C30.3594 41.7021 31.1582 39.7744 32.5801 38.3535C34.002 36.9326 35.9277 36.1348 37.9375 36.1348C39.9473 36.1348 41.875 36.9336 43.2969 38.3545C44.7188 39.7764 45.5156 41.7041 45.5156 43.7139C45.5137 45.7236 44.7148 47.6504 43.293 49.0703C41.873 50.4922 39.9453 51.291 37.9355 51.292ZM37.9355 40.0078C36.9531 40.0088 36.0098 40.3994 35.3164 41.0947C34.6211 41.7891 34.2305 42.7324 34.2324 43.7148C34.2324 44.6973 34.623 45.6396 35.3184 46.335C36.0137 47.0293 36.957 47.4199 37.9375 47.4189C38.9219 47.4189 39.8633 47.0283 40.5586 46.333C41.2539 45.6387 41.6426 44.6953 41.6426 43.7139C41.6426 42.7295 41.252 41.7881 40.5566 41.0928C39.8613 40.3975 38.918 40.0078 37.9355 40.0078Z" fill="#6D95FC" fill-opacity="1.000000" fill-rule="nonzero"/>
	<path id="Vector" d="M37.9355 51.292C35.9258 51.292 33.998 50.4922 32.5781 49.0703C31.1562 47.6494 30.3594 45.7217 30.3594 43.7119C30.3594 41.7021 31.1582 39.7744 32.5801 38.3535C34.002 36.9326 35.9277 36.1348 37.9375 36.1348C39.9473 36.1348 41.875 36.9336 43.2969 38.3545C44.7188 39.7764 45.5156 41.7041 45.5156 43.7139C45.5137 45.7236 44.7148 47.6504 43.293 49.0703C41.873 50.4922 39.9453 51.291 37.9355 51.292ZM34.2793 49.1816Q33.7461 48.8252 33.2852 48.3643L33.2852 48.3633Q32.8223 47.9014 32.4668 47.3682Q32.1094 46.835 31.8594 46.2295Q31.6094 45.626 31.4844 44.998Q31.3594 44.3672 31.3594 43.7119Q31.3594 43.0557 31.4863 42.4238Q31.6113 41.7969 31.8594 41.1943Q32.1113 40.5869 32.4707 40.0508Q32.8262 39.5215 33.2871 39.0615Q33.752 38.5957 34.2891 38.2373Q34.8203 37.8838 35.4199 37.6357Q36.0234 37.3857 36.6504 37.2607Q37.2812 37.1348 37.9375 37.1348Q38.5898 37.1348 39.2168 37.2588Q39.8496 37.3848 40.4551 37.6357Q41.0605 37.8857 41.5938 38.2432Q42.127 38.5996 42.5898 39.0615Q43.0508 39.5225 43.4062 40.0537Q43.7637 40.5889 44.0156 41.1963Q44.2656 41.7979 44.3906 42.4248Q44.5156 43.0566 44.5156 43.7139Q44.5156 44.3613 44.3926 44.9844Q44.2676 45.6201 44.0137 46.2305Q43.7617 46.8359 43.4043 47.3701Q43.0488 47.9023 42.5859 48.3633Q42.1211 48.8291 41.584 49.1865Q41.0527 49.541 40.4531 49.79Q39.8496 50.04 39.2207 50.165Q38.5898 50.291 37.9355 50.292Q37.2891 50.292 36.668 50.1689Q36.0293 50.0439 35.418 49.79Q34.8125 49.5391 34.2793 49.1816ZM34.6094 40.3867L34.6094 40.3877Q34.2793 40.7168 34.0254 41.0977Q33.7695 41.4805 33.5898 41.9141Q33.4102 42.3486 33.3203 42.8018Q33.2324 43.25 33.2324 43.7158Q33.2324 44.1768 33.3184 44.6201Q33.4082 45.0771 33.5898 45.5156Q33.7695 45.9453 34.0215 46.3252Q34.2773 46.709 34.6113 47.042Q34.9453 47.375 35.3301 47.6318Q35.709 47.8838 36.1387 48.0615Q36.5781 48.2432 37.0352 48.333Q37.4785 48.4189 37.9395 48.4189Q38.4004 48.4189 38.8438 48.332Q39.3008 48.2422 39.7383 48.0605Q40.168 47.8818 40.5488 47.6289Q40.9336 47.373 41.2656 47.04Q41.5898 46.7168 41.8398 46.3447Q42.1016 45.9561 42.2852 45.5137Q42.4648 45.082 42.5527 44.6328Q42.6426 44.1826 42.6426 43.7139Q42.6426 43.2354 42.5488 42.7764Q42.459 42.3359 42.2832 41.9121Q42.1055 41.4805 41.8496 41.0986Q41.5957 40.7168 41.2637 40.3857Q40.9258 40.0488 40.5371 39.791Q40.1621 39.541 39.7363 39.3652Q39.3066 39.1875 38.8574 39.0977Q38.4062 39.0078 37.9355 39.0078Q37.459 39.0078 37.002 39.1006Q36.5586 39.1904 36.1348 39.3672Q35.6992 39.5469 35.3164 39.8047Q34.9375 40.0586 34.6094 40.3867ZM37.9355 40.0078C36.9531 40.0088 36.0098 40.3994 35.3164 41.0947C34.6211 41.7891 34.2305 42.7324 34.2324 43.7148C34.2324 44.6973 34.623 45.6396 35.3184 46.335C36.0137 47.0293 36.957 47.4199 37.9375 47.4189C38.9219 47.4189 39.8633 47.0283 40.5586 46.333C41.2539 45.6387 41.6426 44.6953 41.6426 43.7139C41.6426 42.7295 41.252 41.7881 40.5566 41.0928C39.8613 40.3975 38.918 40.0078 37.9355 40.0078Z" fill="#000000" fill-opacity="1.000000" fill-rule="evenodd"/>
</svg>
