<svg width="29.000000" height="29.000000" viewBox="0 0 29 29" fill="none" xmlns="http://www.w3.org/2000/svg" xmlns:xlink="http://www.w3.org/1999/xlink">
	<desc>
			Created with Pixso.
	</desc>
	<defs/>
	<path id="Vector" d="M10.7715 0C13.6289 0 16.3672 1.13477 18.3887 3.15527C20.4082 5.1748 21.543 7.91504 21.543 10.7715C21.543 13.4395 20.5645 15.8916 18.957 17.7812L19.4043 18.2285L20.7148 18.2285L29 26.5146L26.5137 29L18.2285 20.7139L18.2285 19.4053L17.7812 18.958C15.8926 20.5654 13.4395 21.543 10.7715 21.543C7.91406 21.543 5.17578 20.4082 3.1543 18.3877C1.13477 16.3682 0 13.6279 0 10.7715C0 7.91504 1.13477 5.1748 3.1543 3.15527C5.17578 1.13477 7.91406 0 10.7715 0ZM10.7715 3.31445C6.62891 3.31445 3.31445 6.62891 3.31445 10.7715C3.31445 14.9141 6.62891 18.2285 10.7715 18.2285C14.9141 18.2285 18.2285 14.9141 18.2285 10.7715C18.2285 6.62891 14.9141 3.31445 10.7715 3.31445Z" fill="#6D95FC" fill-opacity="1.000000" fill-rule="nonzero"/>
</svg>
