<svg width="89.753906" height="89.258789" viewBox="0 0 89.7539 89.2588" fill="none" xmlns="http://www.w3.org/2000/svg" xmlns:xlink="http://www.w3.org/1999/xlink">
	<desc>
			Created with Pixso.
	</desc>
	<defs/>
	<path id="Vector" d="M56.9219 44.873C56.207 44.1582 55.0781 44.1582 54.3613 44.8359L41.375 57.6348L35.2012 51.3857C34.4863 50.6709 33.3555 50.6709 32.6406 51.3486C31.9258 52.0635 31.9258 53.1934 32.6035 53.9082L41.2988 62.7549L56.8848 47.3955C57.6367 46.7559 57.6367 45.5889 56.9219 44.873L56.9219 44.873Z" fill="#6D95FC" fill-opacity="1.000000" fill-rule="nonzero"/>
	<path id="Vector" d="M44.6875 18.3711L44.8379 18.3711C47.0957 18.3711 49.3926 17.3926 51.125 15.7363C52.9316 13.9668 53.9863 11.6328 53.9863 9.26074C54.0234 6.85156 53.082 4.55469 51.3125 2.78613C49.582 1.0166 47.2852 0.0380859 44.875 0L44.8008 0C39.793 0 35.6523 4.02832 35.5781 9.03516C35.502 13.9287 39.7559 18.2959 44.6875 18.3711ZM44.8008 3.65137C46.2676 3.65137 47.6621 4.29199 48.7148 5.3457C49.7695 6.39941 50.334 7.79297 50.334 9.22266C50.334 10.6162 49.6562 12.0469 48.5645 13.1387C47.4727 14.1924 46.1172 14.7949 44.7246 14.7568C41.8262 14.7197 39.1543 11.9707 39.1914 9.11035C39.2656 6.13672 41.8262 3.65137 44.8008 3.65137L44.8008 3.65137Z" fill="#FFFFFF" fill-opacity="1.000000" fill-rule="nonzero"/>
	<path id="Vector" d="M44.6875 18.3711L44.8379 18.3711C47.0957 18.3711 49.3926 17.3926 51.125 15.7363C52.9316 13.9668 53.9863 11.6328 53.9863 9.26074C54.0234 6.85156 53.082 4.55469 51.3125 2.78613C49.582 1.0166 47.2852 0.0380859 44.875 0L44.8008 0C39.793 0 35.6523 4.02832 35.5781 9.03516C35.502 13.9287 39.7559 18.2959 44.6875 18.3711ZM45.0352 17.3682Q44.9375 17.3711 44.8379 17.3711L44.7031 17.3711Q44.2402 17.3643 43.7871 17.3018Q42.6641 17.1484 41.5859 16.6582Q41.1035 16.4385 40.6543 16.1631Q39.7422 15.6025 38.9707 14.8115Q38.1641 13.9854 37.6172 13.0137Q37.3828 12.5986 37.1953 12.1582Q36.7305 11.0576 36.6152 9.9209Q36.5703 9.48828 36.5762 9.0498Q36.5898 8.18359 36.7793 7.3584Q36.9492 6.62012 37.2617 5.91406Q37.5371 5.29004 37.9062 4.72656Q38.3906 3.9873 39.0391 3.35547Q39.6445 2.7627 40.3418 2.3125Q40.957 1.91602 41.6426 1.63086Q42.3594 1.33105 43.1074 1.17383Q43.9355 1 44.8008 1L44.8594 1Q45.7148 1.01367 46.5293 1.19727Q47.2559 1.3623 47.9531 1.66211Q48.4453 1.87402 48.9023 2.14648Q49.8262 2.69727 50.6055 3.49316Q51.498 4.38477 52.0645 5.44922Q52.252 5.79688 52.4023 6.16406Q52.6543 6.77832 52.7988 7.41602Q53 8.31445 52.9863 9.26074Q52.9863 9.56934 52.959 9.87598Q52.8535 11.1152 52.3184 12.3184Q52.1523 12.6924 51.9531 13.0479Q51.3477 14.1182 50.4336 15.0137Q49.7168 15.6992 48.8867 16.1973Q48.3613 16.5127 47.791 16.7529Q46.4199 17.3301 45.0352 17.3682ZM50.3438 5.79199Q49.9551 5.1709 49.4219 4.63867Q48.7266 3.94238 47.9004 3.47949Q47.6152 3.32031 47.3164 3.1875Q46.5039 2.83105 45.6602 2.71191Q45.2344 2.65137 44.8008 2.65137L44.8008 2.65137Q44.2734 2.65137 43.7598 2.73633Q43.0098 2.86035 42.2891 3.16602Q41.8164 3.36621 41.3828 3.63379Q40.7539 4.02148 40.2109 4.54883Q39.6602 5.08496 39.25 5.71484Q38.9805 6.13086 38.7715 6.58789Q38.4785 7.22754 38.334 7.89941Q38.207 8.48633 38.1914 9.09668Q38.1895 9.30762 38.2012 9.51758Q38.2656 10.5693 38.7168 11.5967Q38.8359 11.8652 38.9746 12.1221Q39.4395 12.9717 40.1426 13.6914Q40.8281 14.3936 41.6465 14.8721Q41.9199 15.0322 42.209 15.167Q43.2812 15.668 44.3828 15.7441Q44.5391 15.7549 44.6973 15.7568Q45.0273 15.7656 45.3516 15.7363Q46.2656 15.6553 47.1504 15.2764Q48.2969 14.7861 49.2715 13.8457Q50.0703 13.0479 50.5762 12.0957Q50.6777 11.9062 50.7676 11.71Q51.3047 10.5391 51.332 9.35645Q51.334 9.29004 51.334 9.22266Q51.334 8.59375 51.2148 7.98828Q51.0938 7.3623 50.8438 6.76074Q50.6328 6.25195 50.3438 5.79199ZM44.8008 3.65137C41.8262 3.65137 39.2656 6.13672 39.1914 9.11035C39.1543 11.9707 41.8262 14.7197 44.7246 14.7568C46.1172 14.7949 47.4727 14.1924 48.5645 13.1387C49.6562 12.0469 50.334 10.6162 50.334 9.22266C50.334 7.79297 49.7695 6.39941 48.7148 5.3457C47.6621 4.29199 46.2695 3.65137 44.8008 3.65137L44.8008 3.65137Z" fill="#000000" fill-opacity="1.000000" fill-rule="evenodd"/>
	<path id="Vector" d="M59.1055 37.2324C60.123 37.2324 60.9141 36.4043 60.9141 35.4258L60.9141 28.6875C60.9883 27.4072 60.1973 25.0732 56.9219 23.9814C56.9219 23.9814 51.5781 22.1748 50.2598 21.7607L49.2051 21.4219L44.877 25.751L40.5469 21.4219L39.4922 21.7607C38.1758 22.1748 32.8301 23.9814 32.8301 23.9814C29.5547 25.0732 28.8008 27.4072 28.8398 28.6875L28.8398 35.4258C28.8398 36.4424 29.668 37.2324 30.6465 37.2324C31.625 37.2324 32.4531 36.4043 32.4531 35.4258L32.4531 28.5742C32.4902 28.3115 32.8301 27.7842 33.959 27.4072C33.959 27.4072 37.498 26.2031 39.4922 25.5625L44.8379 30.9082L50.1836 25.5625C52.1797 26.2031 55.7168 27.4072 55.7168 27.4072C56.8086 27.7842 57.1855 28.2734 57.2227 28.4238L57.2227 35.4258C57.2617 36.4424 58.0898 37.2334 59.1055 37.2334L59.1055 37.2324Z" fill="#FFFFFF" fill-opacity="1.000000" fill-rule="nonzero"/>
	<path id="Vector" d="M59.1055 37.2324C60.123 37.2324 60.9141 36.4043 60.9141 35.4258L60.9141 28.6875C60.9883 27.4072 60.1973 25.0732 56.9219 23.9814C56.9219 23.9814 51.5781 22.1748 50.2598 21.7607L49.2051 21.4219L45.584 25.0439L44.877 25.751L44.1699 25.0439L40.5469 21.4219L39.4922 21.7607C38.1758 22.1748 32.8301 23.9814 32.8301 23.9814C29.5547 25.0732 28.8008 27.4072 28.8398 28.6875L28.8398 35.4258C28.8398 36.4424 29.668 37.2324 30.6465 37.2324C31.625 37.2324 32.4531 36.4043 32.4531 35.4258L32.4531 28.5742C32.4902 28.3115 32.8301 27.7842 33.959 27.4072C33.959 27.4072 37.498 26.2031 39.4922 25.5625L44.1309 30.2012L44.8379 30.9082L45.5449 30.2012L50.1836 25.5625C52.1797 26.2031 55.7168 27.4072 55.7168 27.4072C56.8086 27.7842 57.1855 28.2734 57.2227 28.4238L57.2227 35.4258C57.2617 36.4424 58.0898 37.2334 59.1055 37.2334L59.1055 37.2324ZM59.0859 36.2324Q58.9023 36.2295 58.7461 36.1611Q58.6055 36.1006 58.4902 35.9883Q58.3711 35.875 58.3047 35.7354Q58.2324 35.585 58.2227 35.4043L58.2227 28.3008L58.1934 28.1816Q58.0684 27.6826 57.4902 27.2197Q56.9219 26.7656 56.041 26.4609Q52.4941 25.2539 50.4902 24.6104L49.9082 24.4238L44.8379 29.4941L39.7676 24.4238L39.1875 24.6104Q37.1836 25.2529 33.6426 26.459Q32.6855 26.7783 32.1211 27.2969Q31.8516 27.5439 31.6855 27.8242Q31.5078 28.125 31.4629 28.4336L31.4531 28.5039L31.4531 35.4258Q31.4531 35.4727 31.4473 35.5186Q31.4336 35.624 31.3906 35.7246Q31.373 35.7656 31.3516 35.8047Q31.2949 35.9053 31.209 35.9893Q31.125 36.0742 31.0254 36.1309Q30.9863 36.1523 30.9453 36.1699Q30.8438 36.2139 30.7383 36.2275Q30.6934 36.2324 30.6465 36.2324Q30.4863 36.2324 30.3496 36.1787Q30.2012 36.1201 30.0781 35.998Q29.9609 35.8838 29.9023 35.7451Q29.8398 35.5986 29.8398 35.4258L29.8398 28.6729L29.8379 28.6582Q29.8281 28.2705 29.9492 27.835Q29.9629 27.7842 29.9785 27.7344Q30.1289 27.2559 30.4219 26.8232Q30.8066 26.25 31.4141 25.8018Q32.1367 25.2666 33.1504 24.9287Q38.4863 23.126 39.7988 22.7129L40.2715 22.5605L44.877 27.165L49.4805 22.5605L49.959 22.7148Q51.2676 23.126 56.6074 24.9307Q57.6172 25.2676 58.3457 25.8027Q58.959 26.2539 59.3477 26.8262Q59.6738 27.3057 59.8184 27.832Q59.9375 28.2617 59.9141 28.6289L59.9141 28.6582L59.9141 35.4258Q59.9141 35.585 59.8594 35.7236Q59.8008 35.8711 59.6797 35.9941Q59.5645 36.1104 59.4258 36.1699Q59.2793 36.2324 59.1055 36.2324L59.0859 36.2324Z" fill="#000000" fill-opacity="1.000000" fill-rule="evenodd"/>
	<path id="Vector" d="M15.8887 52.0635C10.8809 52.0635 6.74023 56.0918 6.66602 61.0986C6.58984 65.9922 10.8438 70.3213 15.7754 70.4346L15.9258 70.4346C18.1855 70.4346 20.4805 69.4561 22.2129 67.7998C24.0195 66.0303 25.0742 63.6963 25.0742 61.3242C25.1113 58.915 24.1699 56.6182 22.4004 54.8496C20.6699 53.0801 18.373 52.1016 15.9629 52.0635L15.8887 52.0635ZM21.4219 61.249C21.4219 62.6416 20.7441 64.0723 19.6523 65.1641C18.5605 66.2178 17.168 66.8203 15.8125 66.7832C12.9141 66.7451 10.2422 63.9971 10.2793 61.1357C10.3164 58.1621 12.877 55.6777 15.8887 55.6777L15.9258 55.6777C17.3574 55.6777 18.75 56.3174 19.8027 57.3711C20.8574 58.4629 21.459 59.8184 21.4219 61.249Z" fill="#FFFFFF" fill-opacity="1.000000" fill-rule="nonzero"/>
	<path id="Vector" d="M15.8887 52.0635C10.8809 52.0635 6.74023 56.0918 6.66602 61.0986C6.58984 65.9922 10.8438 70.3213 15.7754 70.4346L15.9258 70.4346C18.1855 70.4346 20.4805 69.4561 22.2129 67.7998C24.0195 66.0303 25.0742 63.6963 25.0742 61.3242C25.1113 58.915 24.1699 56.6182 22.4004 54.8496C20.6699 53.0801 18.373 52.1016 15.9629 52.0635L15.8887 52.0635ZM15.7871 69.4346L15.9258 69.4346Q16.0254 69.4346 16.123 69.4316Q17.5078 69.3936 18.8789 68.8164Q19.4492 68.5762 19.9746 68.2607Q20.8047 67.7627 21.5215 67.0771Q22.4355 66.1816 23.041 65.1104Q23.2402 64.7559 23.4062 64.3818Q23.9414 63.1787 24.0469 61.9395Q24.0742 61.6328 24.0742 61.3242Q24.0879 60.3779 23.8867 59.4805Q23.7441 58.8418 23.4902 58.2275Q23.3398 57.8604 23.1523 57.5127Q22.5859 56.4482 21.6934 55.5566Q20.9141 54.7607 19.9902 54.21Q19.5332 53.9375 19.041 53.7256Q18.3438 53.4258 17.6172 53.2607Q16.8027 53.0771 15.9473 53.0635L15.8887 53.0635Q15.0234 53.0635 14.1953 53.2373Q13.4473 53.3945 12.7305 53.6943Q12.0449 53.9795 11.4297 54.376Q10.7324 54.8262 10.127 55.4189Q9.47852 56.0508 8.99414 56.79Q8.625 57.3535 8.34961 57.9775Q8.03711 58.6836 7.86719 59.4219Q7.67773 60.2471 7.66406 61.1133L7.66406 61.1133Q7.6582 61.5703 7.70703 62.0215Q7.82617 63.1367 8.2832 64.2148Q8.45898 64.6289 8.67773 65.0195Q9.23242 66.0156 10.0566 66.8604Q10.793 67.6123 11.6602 68.1582Q12.1465 68.4648 12.6758 68.707Q13.75 69.1963 14.8691 69.3574Q15.3242 69.4229 15.7871 69.4346ZM18.5605 67.1484Q19.5312 66.6719 20.3477 65.8838L20.3594 65.8711Q21.1582 65.0732 21.6641 64.1221Q21.7656 63.9316 21.8555 63.7354Q22.3926 62.5654 22.4199 61.3828Q22.4219 61.3223 22.4219 61.2617Q22.4316 60.8311 22.3809 60.4082Q22.2793 59.5859 21.9434 58.793Q21.4551 57.6416 20.5098 56.6641Q19.8164 55.9707 18.9941 55.5078Q18.7109 55.3477 18.4102 55.2148Q17.5039 54.8125 16.5625 54.7119Q16.2461 54.6777 15.9258 54.6777L15.8887 54.6777Q15.3125 54.6777 14.7539 54.7764Q14.043 54.9033 13.3594 55.1904Q12.8359 55.4102 12.3652 55.709Q11.7793 56.0811 11.2715 56.5742Q10.707 57.124 10.293 57.7705Q10.0352 58.1758 9.83594 58.6191Q9.52344 59.3145 9.38672 60.0439Q9.28711 60.5742 9.2793 61.123Q9.27734 61.334 9.28906 61.543Q9.35352 62.5947 9.80469 63.623Q9.92383 63.8916 10.0625 64.1484Q10.5273 64.998 11.2305 65.7168Q11.916 66.4199 12.7344 66.8975Q13.0078 67.0576 13.2969 67.1924Q14.373 67.6963 15.4766 67.7705Q15.6309 67.7803 15.7852 67.7822Q15.957 67.7871 16.1289 67.7812Q17.1816 67.7451 18.2227 67.3037Q18.3945 67.2305 18.5605 67.1484ZM21.4219 61.249C21.4219 62.6416 20.7441 64.0723 19.6523 65.1641C18.5605 66.2178 17.168 66.8203 15.8125 66.7832C12.9141 66.7451 10.2422 63.9971 10.2793 61.1357C10.3164 58.1621 12.877 55.6777 15.8887 55.6777L15.9258 55.6777C17.3574 55.6777 18.75 56.3174 19.8027 57.3711C20.8574 58.4629 21.459 59.8184 21.4219 61.249Z" fill="#000000" fill-opacity="1.000000" fill-rule="evenodd"/>
	<path id="Vector" d="M30.1934 89.2578C31.209 89.2578 32 88.4297 32 87.4512L32 80.7129C32.0762 79.4326 31.2852 77.0986 28.0098 76.0068C28.0098 76.0068 22.6641 74.2002 21.3457 73.7861L20.293 73.4473L16 77.7764L11.6719 73.4473L10.6172 73.7861C9.30078 74.2002 3.99219 76.0068 3.99219 76.0068C0.716797 77.0986 -0.0371094 79.4326 0.00195312 80.7129L0.00195312 87.4512C0.00195312 88.4678 0.830078 89.2578 1.80859 89.2578C2.78711 89.2578 3.61523 88.4297 3.61523 87.4512L3.61523 80.5996C3.65234 80.3369 3.99219 79.8096 5.12109 79.4326C5.12109 79.4326 8.66016 78.2285 10.6543 77.5879L16 82.9336L21.3457 77.5879C23.3418 78.2285 26.8789 79.4326 26.8789 79.4326C27.9707 79.8096 28.3477 80.2988 28.3848 80.4492L28.3848 87.4512C28.3848 88.4678 29.1758 89.2588 30.1934 89.2588L30.1934 89.2578Z" fill="#FFFFFF" fill-opacity="1.000000" fill-rule="nonzero"/>
	<path id="Vector" d="M30.1934 89.2578C31.209 89.2578 32 88.4297 32 87.4512L32 80.7129C32.0762 79.4326 31.2852 77.0986 28.0098 76.0068C28.0098 76.0068 22.6641 74.2002 21.3457 73.7861L20.293 73.4473L16.7051 77.0664L16 77.7764L15.293 77.0693L11.6719 73.4473L10.6172 73.7861C9.30078 74.2002 3.99219 76.0068 3.99219 76.0068C0.716797 77.0986 -0.0371094 79.4326 0.00195312 80.7129L0.00195312 87.4512C0.00195312 88.4678 0.830078 89.2578 1.80859 89.2578C2.78711 89.2578 3.61523 88.4297 3.61523 87.4512L3.61523 80.5996C3.65234 80.3369 3.99219 79.8096 5.12109 79.4326C5.12109 79.4326 8.66016 78.2285 10.6543 77.5879L15.293 82.2266L16 82.9336L16.707 82.2266L21.3457 77.5879C23.3418 78.2285 26.8789 79.4326 26.8789 79.4326C27.9707 79.8096 28.3477 80.2988 28.3848 80.4492L28.3848 87.4512C28.3848 88.4678 29.1758 89.2588 30.1934 89.2588L30.1934 89.2578ZM30.1738 88.2578Q29.9688 88.2549 29.8066 88.1709Q29.7031 88.1162 29.6152 88.0293Q29.5273 87.9414 29.4727 87.8369Q29.3848 87.667 29.3848 87.4512L29.3848 80.3262L29.3555 80.207Q29.2305 79.708 28.6523 79.2451Q28.084 78.791 27.2031 78.4863Q23.6543 77.2783 21.6523 76.6357L21.0703 76.4492L16 81.5195L10.9297 76.4492L10.3496 76.6357Q8.3457 77.2783 4.80469 78.4844Q3.84766 78.8037 3.2832 79.3223Q3.01367 79.5693 2.84766 79.8496Q2.66992 80.1504 2.625 80.459L2.61523 80.5293L2.61523 87.4512Q2.61523 87.498 2.60938 87.5439Q2.5957 87.6494 2.55273 87.75Q2.53516 87.791 2.51367 87.8301Q2.45703 87.9307 2.37109 88.0146Q2.28711 88.0996 2.1875 88.1562Q2.14844 88.1777 2.10742 88.1953Q2.00586 88.2393 1.90039 88.2529Q1.85547 88.2578 1.80859 88.2578Q1.64844 88.2578 1.51172 88.2041Q1.36328 88.1455 1.24023 88.0234Q1.12305 87.9092 1.06445 87.7705Q1.00195 87.624 1.00195 87.4512L1.00195 80.6982L1 80.6836Q0.990234 80.2959 1.11133 79.8604Q1.125 79.8096 1.14062 79.7598Q1.29102 79.2812 1.58398 78.8486Q1.96875 78.2754 2.57617 77.8271Q3.29883 77.292 4.31445 76.9541L4.31445 76.9541Q9.61328 75.1494 10.9238 74.7383L11.3965 74.5859L16.0039 79.1934L20.5703 74.5869L21.0469 74.7402Q22.3535 75.1514 27.6934 76.9561Q28.7051 77.293 29.4336 77.8281Q30.0449 78.2793 30.4336 78.8516Q30.7598 79.3311 30.9043 79.8574Q31.0234 80.2871 31.002 80.6543L31 80.6836L31 87.4512Q31 87.6104 30.9453 87.749Q30.8867 87.8965 30.7656 88.0195Q30.6504 88.1357 30.5117 88.1953Q30.3672 88.2578 30.1934 88.2578L30.1738 88.2578Z" fill="#000000" fill-opacity="1.000000" fill-rule="evenodd"/>
	<path id="Vector" d="M73.5234 70.3965L73.6738 70.3965C75.9316 70.3965 78.2285 69.418 79.9609 67.7617C81.7676 65.9922 82.8223 63.6582 82.8223 61.2861C82.8594 58.877 81.918 56.5801 80.1484 54.8115C78.418 53.042 76.1211 52.0635 73.7109 52.0254L73.6367 52.0254C68.6289 52.0254 64.4883 56.0537 64.4141 61.0605C64.3379 65.9541 68.5918 70.3213 73.5234 70.3965ZM73.6738 55.6768C75.1426 55.6768 76.5352 56.3174 77.5898 57.3711C78.6426 58.4629 79.207 59.8184 79.207 61.248C79.207 62.6416 78.5293 64.0723 77.4375 65.1641C76.3477 66.2178 74.9531 66.8203 73.5996 66.7822C70.6992 66.7451 68.0273 63.9961 68.0645 61.1357C68.1016 58.1992 70.6621 55.6768 73.6738 55.6768L73.6738 55.6768Z" fill="#FFFFFF" fill-opacity="1.000000" fill-rule="nonzero"/>
	<path id="Vector" d="M73.5234 70.3965L73.6738 70.3965C75.9316 70.3965 78.2285 69.418 79.9609 67.7617C81.7676 65.9922 82.8223 63.6582 82.8223 61.2861C82.8594 58.877 81.918 56.5801 80.1484 54.8115C78.418 53.042 76.1211 52.0635 73.7109 52.0254L73.6367 52.0254C68.6289 52.0254 64.4883 56.0537 64.4141 61.0605C64.3379 65.9541 68.5918 70.3213 73.5234 70.3965ZM73.8711 69.3936Q73.7734 69.3965 73.6738 69.3965L73.5391 69.3965Q73.0762 69.3896 72.623 69.3271Q71.5 69.1738 70.4219 68.6836Q69.9395 68.4639 69.4902 68.1885Q68.5781 67.6279 67.8066 66.8369Q67 66.0107 66.4531 65.0391Q66.2188 64.624 66.0312 64.1836Q65.5664 63.083 65.4512 61.9463Q65.4062 61.5137 65.4121 61.0752Q65.4258 60.209 65.6152 59.3838Q65.7852 58.6455 66.0977 57.9395Q66.373 57.3154 66.7422 56.752Q67.2266 56.0127 67.875 55.3809Q68.4805 54.7881 69.1777 54.3379Q69.793 53.9414 70.4785 53.6562Q71.1953 53.3564 71.9434 53.1992Q72.7715 53.0254 73.6367 53.0254L73.6953 53.0254Q74.5508 53.0391 75.3652 53.2227Q76.0918 53.3877 76.7891 53.6875Q77.2812 53.8994 77.7383 54.1719Q78.6621 54.7227 79.4414 55.5186Q80.334 56.4102 80.9004 57.4746Q81.0879 57.8232 81.2383 58.1895Q81.4902 58.8037 81.6348 59.4424Q81.8359 60.3398 81.8223 61.2861Q81.8223 61.5947 81.7949 61.9014Q81.6895 63.1406 81.1543 64.3438Q80.9883 64.7178 80.7891 65.0723Q80.1836 66.1436 79.2695 67.0391Q78.5527 67.7246 77.7227 68.2227Q77.1973 68.5381 76.627 68.7783Q75.2559 69.3555 73.8711 69.3936ZM79.5488 58.4297Q79.082 57.4775 78.3086 56.6768L78.2969 56.6641Q77.5996 55.9678 76.7734 55.5049Q76.4883 55.3457 76.1895 55.2129Q75.3789 54.8564 74.5332 54.7373Q74.1074 54.6768 73.6738 54.6768L73.6738 54.6768Q73.1289 54.6768 72.5996 54.7666Q71.8555 54.8936 71.1406 55.1963Q70.6504 55.4053 70.2031 55.6855Q69.5879 56.0703 69.0547 56.5898Q68.4766 57.1553 68.0586 57.8203Q67.8125 58.21 67.6211 58.6338Q67.2832 59.3857 67.1504 60.1729Q67.0703 60.6416 67.0645 61.1221Q67.0625 61.333 67.0742 61.543Q67.1387 62.5947 67.5898 63.6221Q67.709 63.8906 67.8496 64.1475Q68.3125 64.9971 69.0156 65.7168Q69.7012 66.4189 70.5195 66.8975Q70.793 67.0576 71.082 67.1924Q72.1582 67.6953 73.2617 67.7695Q73.416 67.7803 73.5703 67.7822Q73.7422 67.7871 73.9141 67.7812Q74.9688 67.7441 76.0078 67.3027Q76.0723 67.2764 76.1348 67.248Q77.2285 66.7559 78.1465 65.8711Q78.9434 65.0732 79.4512 64.1211Q79.5527 63.9316 79.6426 63.7354Q80.1777 62.5645 80.207 61.3818Q80.207 61.3154 80.207 61.248Q80.207 60.625 80.0898 60.0244Q79.9668 59.3984 79.7168 58.7979Q79.6387 58.6104 79.5488 58.4297ZM73.6738 55.6768C70.6621 55.6768 68.1016 58.1992 68.0645 61.1357C68.0273 63.9961 70.6992 66.7451 73.5996 66.7822C74.9531 66.8203 76.3477 66.2178 77.4375 65.1641C78.5293 64.0723 79.207 62.6416 79.207 61.248C79.207 59.8184 78.6426 58.4629 77.5898 57.3711C76.5352 56.3174 75.1426 55.6768 73.6738 55.6768L73.6738 55.6768Z" fill="#000000" fill-opacity="1.000000" fill-rule="evenodd"/>
	<path id="Vector" d="M87.9414 89.2578C88.957 89.2578 89.748 88.4297 89.748 87.4512L89.748 80.7129C89.8242 79.4326 89.0332 77.0986 85.7578 76.0068C85.7578 76.0068 80.4121 74.2002 79.0938 73.7861L78.041 73.4473L73.748 77.7764L69.4199 73.4473L68.3652 73.7861C67.0488 74.2002 61.7402 76.0068 61.7402 76.0068C58.4648 77.0986 57.7109 79.4326 57.75 80.7129L57.75 87.4512C57.75 88.4678 58.5781 89.2578 59.5566 89.2578C60.5352 89.2578 61.3633 88.4297 61.3633 87.4512L61.3633 80.5996C61.4004 80.3369 61.7402 79.8096 62.8691 79.4326C62.8691 79.4326 66.4082 78.2285 68.4023 77.5879L73.748 82.9336L79.0938 77.5879C81.0898 78.2285 84.627 79.4326 84.627 79.4326C85.7188 79.8096 86.0957 80.2988 86.1328 80.4492L86.1328 87.4512C86.1328 88.4678 86.9238 89.2588 87.9414 89.2588L87.9414 89.2578Z" fill="#FFFFFF" fill-opacity="1.000000" fill-rule="nonzero"/>
	<path id="Vector" d="M87.9414 89.2578C88.957 89.2578 89.748 88.4297 89.748 87.4512L89.748 80.7129C89.8242 79.4326 89.0332 77.0986 85.7578 76.0068C85.7578 76.0068 80.4121 74.2002 79.0938 73.7861L78.041 73.4473L74.4531 77.0664L73.748 77.7764L73.748 77.7764L73.041 77.0693L69.4199 73.4473L68.3652 73.7861C67.0488 74.2002 61.7402 76.0068 61.7402 76.0068C58.4648 77.0986 57.7109 79.4326 57.75 80.7129L57.75 87.4512C57.75 88.4678 58.5781 89.2578 59.5566 89.2578C60.5352 89.2578 61.3633 88.4297 61.3633 87.4512L61.3633 80.5996C61.4004 80.3369 61.7402 79.8096 62.8691 79.4326C62.8691 79.4326 66.4082 78.2285 68.4023 77.5879L73.041 82.2266L73.748 82.9336L74.4551 82.2266L79.0938 77.5879C81.0898 78.2285 84.627 79.4326 84.627 79.4326C85.7188 79.8096 86.0957 80.2988 86.1328 80.4492L86.1328 87.4512C86.1328 88.4678 86.9238 89.2588 87.9414 89.2588L87.9414 89.2578ZM87.9219 88.2578Q87.7168 88.2549 87.5547 88.1709Q87.4512 88.1162 87.3633 88.0293Q87.2754 87.9414 87.2207 87.8369Q87.1328 87.667 87.1328 87.4512L87.1328 80.3262L87.1035 80.207Q86.9785 79.708 86.4004 79.2451Q85.832 78.791 84.9512 78.4863Q81.4023 77.2783 79.4004 76.6357L78.8184 76.4492L73.748 81.5195L68.6777 76.4492L68.0977 76.6357Q66.0938 77.2783 62.5527 78.4844Q61.5957 78.8037 61.0312 79.3223Q60.7617 79.5693 60.5957 79.8496Q60.418 80.1504 60.373 80.459L60.3633 80.5293L60.3633 87.4512Q60.3633 87.498 60.3574 87.5439Q60.3438 87.6494 60.3008 87.75Q60.2832 87.791 60.2617 87.8301Q60.2051 87.9307 60.1191 88.0146Q60.0352 88.0996 59.9355 88.1562Q59.8965 88.1777 59.8555 88.1953Q59.7539 88.2393 59.6484 88.2529Q59.6035 88.2578 59.5566 88.2578Q59.3965 88.2578 59.2598 88.2041Q59.1113 88.1455 58.9883 88.0234Q58.8711 87.9092 58.8125 87.7705Q58.75 87.624 58.75 87.4512L58.75 80.6982L58.748 80.6836Q58.7383 80.2959 58.8594 79.8604Q58.873 79.8096 58.8887 79.7598Q59.0391 79.2812 59.332 78.8486Q59.7168 78.2754 60.3242 77.8271Q61.0469 77.292 62.0625 76.9541L62.0625 76.9541Q67.3613 75.1494 68.6719 74.7383L69.1445 74.5859L73.752 79.1934L78.3184 74.5869L78.7949 74.7402Q80.1016 75.1514 85.4414 76.9561Q86.4531 77.293 87.1816 77.8281Q87.793 78.2793 88.1816 78.8516Q88.5078 79.3311 88.6523 79.8574Q88.7715 80.2871 88.75 80.6543L88.748 80.6836L88.748 87.4512Q88.748 87.6104 88.6934 87.749Q88.6348 87.8965 88.5137 88.0195Q88.3984 88.1357 88.2598 88.1953Q88.1152 88.2578 87.9414 88.2578L87.9219 88.2578Z" fill="#000000" fill-opacity="1.000000" fill-rule="evenodd"/>
	<path id="Vector" d="M24.7734 37.1562C25.377 36.4414 26.0156 35.7256 26.6934 35.0859C26.9941 34.8223 26.9941 34.333 26.7305 34.0693C26.4668 33.7686 25.9785 33.7686 25.7148 34.0322C25 34.71 24.3223 35.4629 23.6816 36.2158C23.418 36.5166 23.457 36.9688 23.7578 37.2324C23.9082 37.3447 24.0586 37.3828 24.209 37.3828C24.4355 37.4199 24.623 37.3447 24.7734 37.1562Z" fill="#6D95FC" fill-opacity="1.000000" fill-rule="nonzero"/>
	<path id="Vector" d="M18.2969 50.4844C18.6367 50.4844 18.9746 50.2207 19.0117 49.8818C19.1621 48.9404 19.3516 48.0371 19.6152 47.1338C19.7285 46.7568 19.502 46.3428 19.0879 46.2305C18.7109 46.1172 18.2969 46.3428 18.1836 46.7568C17.9199 47.6982 17.7324 48.6768 17.582 49.6934C17.5059 50.1074 17.8086 50.4463 18.1836 50.5215C18.2227 50.4844 18.2598 50.4844 18.2969 50.4844Z" fill="#6D95FC" fill-opacity="1.000000" fill-rule="nonzero"/>
	<path id="Vector" d="M20.3672 43.5566C20.6309 43.5566 20.8945 43.4062 21.0449 43.1426C21.4219 42.2764 21.873 41.4482 22.3633 40.6201C22.5508 40.2812 22.4375 39.8301 22.0996 39.6416C21.7598 39.4531 21.3086 39.5664 21.1211 39.9053C20.6309 40.7705 20.1426 41.6367 19.7285 42.54C19.5762 42.917 19.7285 43.3311 20.1035 43.5186C20.1797 43.5186 20.2539 43.5566 20.3672 43.5566Z" fill="#6D95FC" fill-opacity="1.000000" fill-rule="nonzero"/>
	<path id="Vector" d="M55.3398 77.2676L55.0762 77.3809C54.7012 77.5312 54.5488 77.9824 54.7012 78.3213C54.8125 78.585 55.0762 78.7734 55.377 78.7734C55.4902 78.7734 55.5664 78.7354 55.6797 78.6982L55.9805 78.585C56.3574 78.4346 56.5078 77.9824 56.3574 77.6064C56.1309 77.2295 55.7168 77.0791 55.3398 77.2676Z" fill="#6D95FC" fill-opacity="1.000000" fill-rule="nonzero"/>
	<path id="Vector" d="M34.4473 77.3809C34.0723 77.2305 33.6582 77.3809 33.5078 77.7578C33.3555 78.1338 33.5078 78.5479 33.8828 78.6982C34.7871 79.0752 35.7285 79.4512 36.6699 79.7148C36.7441 79.7529 36.8203 79.7529 36.8945 79.7529C37.1953 79.7529 37.498 79.5645 37.5723 79.2256C37.6855 78.8486 37.459 78.4346 37.084 78.3223C36.2168 78.0586 35.3145 77.7578 34.4473 77.3809Z" fill="#6D95FC" fill-opacity="1.000000" fill-rule="nonzero"/>
	<path id="Vector" d="M51.0508 78.7354C50.1465 78.9619 49.2051 79.1494 48.2637 79.2627C47.8496 79.3008 47.5879 79.6768 47.625 80.0908C47.6621 80.4678 48.002 80.7314 48.3398 80.7314L48.4531 80.7314C49.4316 80.5801 50.4102 80.3926 51.3887 80.166C51.7656 80.0537 52.0293 79.6768 51.916 79.3008C51.8418 78.8486 51.4258 78.623 51.0508 78.7354L51.0508 78.7354Z" fill="#6D95FC" fill-opacity="1.000000" fill-rule="nonzero"/>
	<path id="Vector" d="M41.2227 79.2637C40.8086 79.2256 40.4688 79.4893 40.3945 79.9033C40.3574 80.3174 40.6191 80.6562 41.0332 80.7314C42.0137 80.8447 42.9922 80.957 44.0078 80.957L44.0449 80.957C44.4219 80.957 44.7617 80.6562 44.7617 80.2422C44.7617 79.8281 44.459 79.4893 44.0449 79.4893C43.1055 79.4512 42.1641 79.376 41.2227 79.2637Z" fill="#6D95FC" fill-opacity="1.000000" fill-rule="nonzero"/>
	<path id="Vector" d="M68.5527 43.2559C68.666 43.5195 68.9297 43.6699 69.2305 43.6699C69.3438 43.6699 69.4199 43.6318 69.5332 43.5947C69.9082 43.4443 70.0586 42.9922 69.9082 42.6533C69.4941 41.75 69.043 40.8467 68.5527 40.0186C68.3652 39.6797 67.9141 39.5664 67.5742 39.7549C67.2363 39.9434 67.123 40.3945 67.3105 40.7334C67.7637 41.5615 68.1777 42.3896 68.5527 43.2559Z" fill="#6D95FC" fill-opacity="1.000000" fill-rule="nonzero"/>
	<path id="Vector" d="M71.2266 50.0508L71.3398 50.0508C71.7539 49.9756 72.0156 49.5996 71.9414 49.2227C71.791 48.2812 71.6016 47.3408 71.377 46.4365C71.2637 46.0605 70.8867 45.835 70.4727 45.9102C70.0957 46.0225 69.8711 46.3994 69.9453 46.8135C70.1719 47.6797 70.3594 48.5449 70.5098 49.4482C70.5859 49.7871 70.8867 50.0508 71.2266 50.0508L71.2266 50.0508Z" fill="#6D95FC" fill-opacity="1.000000" fill-rule="nonzero"/>
	<path id="Vector" d="M63.9629 34.1445C63.6602 33.8818 63.209 33.8818 62.9453 34.1445C62.6816 34.4463 62.6816 34.8975 62.9453 35.1611C63.623 35.8018 64.2637 36.5166 64.8652 37.2314C65.0156 37.4199 65.2051 37.4951 65.4297 37.4951C65.5801 37.4951 65.7695 37.458 65.8828 37.3447C66.1836 37.0811 66.2207 36.6299 65.9941 36.3281C65.3555 35.5752 64.6777 34.8604 63.9629 34.1445Z" fill="#6D95FC" fill-opacity="1.000000" fill-rule="nonzero"/>
</svg>
