<svg width="21.000000" height="17.000000" viewBox="0 0 21 17" fill="none" xmlns="http://www.w3.org/2000/svg" xmlns:xlink="http://www.w3.org/1999/xlink">
	<desc>
			Created with Pixso.
	</desc>
	<defs/>
	<path id="Vector" d="M20.82 2C20.05 2.34 19.22 2.58 18.36 2.69C19.24 2.16 19.91 1.32 20.24 0.3C19.41 0.8 18.49 1.16 17.51 1.36C16.73 0.5 15.62 0 14.36 0C12 0 10.08 1.91 10.08 4.29C10.08 4.62 10.13 4.95 10.2 5.26C6.64 5.08 3.47 3.37 1.36 0.79C0.99 1.41 0.78 2.16 0.78 2.94C0.78 4.42 1.53 5.75 2.68 6.5C1.98 6.5 1.32 6.29 0.74 6C0.74 6 0.74 6 0.74 6.03C0.74 8.11 2.22 9.84 4.17 10.24C3.82 10.33 3.43 10.38 3.05 10.38C2.78 10.38 2.5 10.36 2.25 10.3C2.79 12 4.36 13.25 6.25 13.29C4.79 14.45 2.93 15.12 0.91 15.12C0.58 15.12 0.24 15.11 -0.1 15.07C1.8 16.29 4.06 17 6.48 17C14.36 17 18.68 10.46 18.68 4.79C18.68 4.59 18.68 4.41 18.67 4.23C19.51 3.62 20.24 2.87 20.82 2Z" fill="#6D95FC" fill-opacity="1.000000" fill-rule="nonzero"/>
</svg>
