<svg width="20.000000" height="20.000000" viewBox="0 0 20 20" fill="none" xmlns="http://www.w3.org/2000/svg" xmlns:xlink="http://www.w3.org/1999/xlink">
	<desc>
			Created with Pixso.
	</desc>
	<defs/>
	<path id="Vector" d="M9.99 0C4.52 0 0.08 4.45 0.08 9.91C0.08 11.66 0.53 13.36 1.4 14.86L0 20L5.25 18.62C6.69 19.41 8.33 19.83 9.99 19.83C15.44 19.83 19.9 15.37 19.9 9.91C19.9 7.26 18.86 4.78 17 2.91C15.13 1.03 12.64 0 9.99 0ZM10 1.66C12.19 1.66 14.25 2.53 15.82 4.08C17.36 5.65 18.23 7.71 18.23 9.91C18.23 14.46 14.52 18.15 9.99 18.15C8.5 18.15 7.06 17.75 5.8 17L5.5 16.83L2.38 17.65L3.21 14.61L3 14.29C2.18 13 1.75 11.46 1.75 9.91C1.75 5.37 5.44 1.66 10 1.66ZM6.48 5.33C6.32 5.33 6.05 5.38 5.82 5.63C5.59 5.88 4.94 6.5 4.94 7.7C4.94 8.92 5.83 10.09 5.94 10.26C6.08 10.44 7.71 12.94 10.19 14C10.78 14.26 11.25 14.41 11.6 14.53C12.19 14.71 12.74 14.69 13.16 14.62C13.65 14.55 14.63 14.03 14.83 13.45C15.05 12.87 15.05 12.37 14.99 12.26C14.91 12.16 14.75 12.11 14.5 12C14.25 11.86 13.03 11.25 12.82 11.17C12.58 11.09 12.44 11.05 12.25 11.29C12.09 11.54 11.61 12.11 11.48 12.26C11.33 12.44 11.18 12.46 10.94 12.33C10.68 12.21 9.89 11.95 8.94 11.11C8.21 10.45 7.72 9.63 7.57 9.38C7.44 9.15 7.56 9 7.67 8.88C7.78 8.78 7.94 8.59 8.05 8.45C8.17 8.3 8.22 8.2 8.3 8.04C8.38 7.87 8.33 7.73 8.27 7.61C8.22 7.5 7.72 6.25 7.5 5.76C7.31 5.29 7.1 5.34 6.94 5.33C6.81 5.33 6.65 5.33 6.48 5.33Z" fill="#6D95FC" fill-opacity="1.000000" fill-rule="nonzero"/>
</svg>
