<svg width="99.277344" height="95.099609" viewBox="0 0 99.2773 95.0996" fill="none" xmlns="http://www.w3.org/2000/svg" xmlns:xlink="http://www.w3.org/1999/xlink">

	<defs/>
	<path id="XMLID_776_" d="M47.8203 30.2129C47.3945 30.2129 46.9688 30.1055 46.5801 29.8906C45.8027 29.4609 45.3398 28.6914 45.3398 27.832L45.3398 23.8105C45.3398 22.9521 45.8027 22.1826 46.5801 21.7529C47.3574 21.3232 48.2852 21.3232 49.0605 21.7529L52.6973 23.7637C53.4727 24.1934 53.9375 24.9619 53.9375 25.8213C53.9375 26.6807 53.4727 27.4502 52.6973 27.8799L49.0605 29.8896C48.6719 30.1045 48.2461 30.2129 47.8203 30.2129ZM47.8223 23.4541C47.7422 23.4541 47.6758 23.4814 47.6348 23.5039C47.5664 23.542 47.4492 23.6328 47.4492 23.8115L47.4492 27.832C47.4492 28.0107 47.5664 28.1016 47.6348 28.1396C47.7051 28.1777 47.8457 28.2285 48.0059 28.1396L51.6426 26.1289C51.8027 26.04 51.8281 25.8984 51.8281 25.8223C51.8281 25.7451 51.8027 25.6035 51.6426 25.5146L48.0059 23.5039C47.9395 23.4668 47.877 23.4541 47.8223 23.4541Z" fill="#6D95FC" fill-opacity="1.000000" fill-rule="nonzero"/>
	<path id="XMLID_776_" d="M46.5566 29.9336L46.5566 29.9336Q46.8789 30.1123 47.2246 30.1943Q47.5137 30.2627 47.8203 30.2627Q48.125 30.2627 48.4121 30.1953Q48.7598 30.1143 49.0859 29.9336L52.7207 27.9229Q53.1133 27.707 53.3926 27.3906Q53.5371 27.2275 53.6504 27.0371Q53.8066 26.7803 53.8906 26.501Q53.9863 26.1758 53.9863 25.8213Q53.9863 25.4678 53.8906 25.1426Q53.8066 24.8633 53.6504 24.6055Q53.5371 24.416 53.3926 24.252Q53.1133 23.9365 52.7207 23.7197L49.0859 21.709Q48.7617 21.5303 48.4141 21.4482Q48.125 21.3809 47.8203 21.3809Q47.5156 21.3809 47.2285 21.4482Q46.8809 21.5293 46.5566 21.709Q46.1641 21.9258 45.8848 22.2412Q45.7402 22.4043 45.627 22.5947Q45.4707 22.8535 45.3867 23.1328Q45.2891 23.457 45.2891 23.8105L45.2891 27.832Q45.2891 28.1855 45.3867 28.5107Q45.4707 28.79 45.627 29.0479Q45.7402 29.2383 45.8848 29.4023Q46.1641 29.7178 46.5566 29.9336ZM47.8203 30.2129C47.3945 30.2129 46.9688 30.1055 46.5801 29.8906C45.8027 29.4609 45.3398 28.6914 45.3398 27.832L45.3398 23.8105C45.3398 22.9521 45.8027 22.1826 46.5801 21.7529C47.3574 21.3232 48.2852 21.3232 49.0605 21.7529L52.6973 23.7637C53.4727 24.1934 53.9375 24.9619 53.9375 25.8213C53.9375 26.6807 53.4727 27.4502 52.6973 27.8799L49.0605 29.8896C48.6719 30.1045 48.2461 30.2129 47.8203 30.2129ZM47.8223 23.4541C47.7422 23.4541 47.6758 23.4814 47.6348 23.5039C47.5664 23.542 47.4492 23.6328 47.4492 23.8115L47.4492 27.832C47.4492 28.0107 47.5664 28.1016 47.6348 28.1396C47.7051 28.1777 47.8457 28.2285 48.0059 28.1396L51.6426 26.1289C51.8027 26.04 51.8281 25.8984 51.8281 25.8223C51.8281 25.7451 51.8027 25.6035 51.6426 25.5146L48.0059 23.5039C47.9395 23.4668 47.877 23.4541 47.8223 23.4541ZM47.5352 23.667Q47.5742 23.5947 47.6602 23.5479L47.6602 23.5479Q47.7207 23.5127 47.7871 23.5059Q47.8047 23.5039 47.8223 23.5039Q47.834 23.5039 47.8477 23.5049Q47.916 23.5107 47.9824 23.5479L51.6172 25.5586Q51.7031 25.6055 51.7422 25.6777Q51.7773 25.7402 51.7773 25.8223Q51.7773 25.9033 51.7422 25.9658Q51.7031 26.0381 51.6172 26.0859L47.9824 28.0957Q47.9023 28.1396 47.8242 28.1406Q47.7422 28.1416 47.6602 28.0957Q47.5742 28.0498 47.5352 27.9785Q47.5 27.915 47.5 27.832L47.5 23.8115Q47.5 23.7295 47.5352 23.667Z" fill="#FFFFFF" fill-opacity="1.000000" fill-rule="evenodd"/>
	<path id="XMLID_773_" d="M49.6387 36.0186C43.7676 36.0186 38.9922 31.4434 38.9922 25.8203C38.9922 20.1973 43.7676 15.6221 49.6387 15.6221C55.5098 15.6221 60.2852 20.1973 60.2852 25.8203C60.2852 31.4434 55.5098 36.0186 49.6387 36.0186ZM49.6387 17.6436C44.9316 17.6436 41.1016 21.3115 41.1016 25.8203C41.1016 30.3291 44.9316 33.9971 49.6387 33.9971C54.3457 33.9971 58.1758 30.3291 58.1758 25.8203C58.1758 21.3115 54.3457 17.6436 49.6387 17.6436Z" fill="#6D95FC" fill-opacity="1.000000" fill-rule="nonzero"/>
	<path id="XMLID_773_" d="M39.1523 23.7861Q38.9414 24.7812 38.9414 25.8203Q38.9414 26.8584 39.1523 27.8525Q39.3613 28.8516 39.7852 29.8066Q40.0801 30.4756 40.4648 31.0898Q41.1367 32.1621 42.0801 33.0645Q42.7227 33.6797 43.4473 34.1748Q44.3926 34.8213 45.4805 35.2627Q46.2988 35.5947 47.1504 35.79Q48.3633 36.0684 49.6387 36.0684Q50.9141 36.0684 52.127 35.791Q52.9785 35.5947 53.7969 35.2627Q54.8828 34.8223 55.8281 34.1768Q56.5547 33.6816 57.1973 33.0645Q58.1387 32.1631 58.8105 31.0918Q59.1973 30.4766 59.4922 29.8066Q59.9141 28.8525 60.125 27.8545Q60.3359 26.8594 60.3359 25.8203Q60.3359 24.7812 60.125 23.7861Q59.9141 22.7881 59.4922 21.834Q59.1953 21.1631 58.8105 20.5479Q58.1387 19.4775 57.1973 18.5762Q56.5547 17.96 55.8281 17.4639Q54.8828 16.8193 53.7969 16.3789Q52.9785 16.0459 52.127 15.8506Q50.916 15.5723 49.6387 15.5723Q48.3613 15.5723 47.1504 15.8506Q46.2988 16.0459 45.4805 16.3789Q44.3945 16.8193 43.4492 17.4648Q42.7227 17.96 42.0801 18.5762Q41.1387 19.4785 40.4668 20.5498Q40.0801 21.1641 39.7852 21.834Q39.3633 22.7881 39.1523 23.7861ZM49.6387 36.0186C43.7676 36.0186 38.9922 31.4434 38.9922 25.8203C38.9922 20.1973 43.7676 15.6221 49.6387 15.6221C55.5098 15.6221 60.2852 20.1973 60.2852 25.8203C60.2852 31.4434 55.5098 36.0186 49.6387 36.0186ZM49.6387 17.6436C44.9316 17.6436 41.1016 21.3115 41.1016 25.8203C41.1016 30.3291 44.9316 33.9971 49.6387 33.9971C54.3457 33.9971 58.1758 30.3291 58.1758 25.8203C58.1758 21.3115 54.3457 17.6436 49.6387 17.6436ZM41.3184 27.4326Q41.1523 26.6436 41.1523 25.8203Q41.1523 24.9971 41.3184 24.208Q41.4863 23.417 41.8203 22.6611Q42.0547 22.1309 42.3594 21.6455Q42.8926 20.7939 43.6406 20.0771Q44.1504 19.5889 44.7246 19.1963Q45.4766 18.6836 46.3379 18.333Q46.9863 18.0703 47.6602 17.915Q48.623 17.6934 49.6387 17.6934Q50.6543 17.6934 51.6191 17.915Q52.291 18.0703 52.9395 18.333Q53.8027 18.6836 54.5547 19.1973Q55.1289 19.5898 55.6367 20.0771Q56.3848 20.7939 56.918 21.6445Q57.2227 22.1309 57.457 22.6611Q57.791 23.416 57.959 24.2061Q58.125 24.9961 58.125 25.8203Q58.125 26.6445 57.959 27.4346Q57.791 28.2246 57.457 28.9805Q57.2227 29.5098 56.918 29.9961Q56.3848 30.8477 55.6367 31.5635Q55.1289 32.0518 54.5547 32.4443Q53.8027 32.957 52.9395 33.3076Q52.291 33.5713 51.6172 33.7256Q50.6523 33.9473 49.6387 33.9473Q48.625 33.9473 47.6602 33.7256Q46.9863 33.5713 46.3379 33.3076Q45.4766 32.958 44.7246 32.4443Q44.1504 32.0518 43.6406 31.5635Q42.8906 30.8467 42.3574 29.9951Q42.0547 29.5098 41.8203 28.9805Q41.4863 28.2236 41.3184 27.4326Z" fill="#FFFFFF" fill-opacity="1.000000" fill-rule="evenodd"/>
	<path id="XMLID_770_" d="M82.3457 51.5928L16.9316 51.5928C16.3496 51.5928 15.877 51.1396 15.877 50.582L15.877 1.06055C15.877 0.501953 16.3496 0.0498047 16.9316 0.0498047L82.3457 0.0498047C82.9277 0.0498047 83.4004 0.501953 83.4004 1.06055L83.4004 50.582C83.4004 51.1396 82.9277 51.5928 82.3457 51.5928ZM17.9863 49.5713L81.291 49.5713L81.291 2.07129L17.9863 2.07129L17.9863 49.5713Z" fill="#6D95FC" fill-opacity="1.000000" fill-rule="nonzero"/>
	<path id="XMLID_770_" d="M16.6719 51.6133Q16.7988 51.6426 16.9316 51.6426L82.3457 51.6426Q82.4805 51.6426 82.6074 51.6123Q82.6934 51.5928 82.7754 51.5596Q82.8887 51.5137 82.9863 51.4463Q83.0605 51.3955 83.127 51.332Q83.2227 51.2412 83.291 51.1328Q83.332 51.0674 83.3633 50.9951Q83.4062 50.8984 83.4277 50.7979Q83.4512 50.6924 83.4512 50.582L83.4512 1.06055Q83.4512 0.950195 83.4277 0.844727Q83.4062 0.744141 83.3633 0.646484Q83.332 0.575195 83.291 0.509766Q83.2227 0.401367 83.127 0.30957Q83.0605 0.24707 82.9863 0.196289Q82.8887 0.128906 82.7754 0.0830078Q82.6934 0.0498047 82.6074 0.0292969Q82.4805 0 82.3457 0L16.9316 0Q16.7988 0 16.6719 0.0292969Q16.5859 0.0488281 16.502 0.0830078Q16.3906 0.128906 16.291 0.195312Q16.2168 0.246094 16.1523 0.30957Q16.0566 0.401367 15.9863 0.509766Q15.9453 0.575195 15.9141 0.646484Q15.8711 0.744141 15.8496 0.845703Q15.8262 0.950195 15.8262 1.06055L15.8262 50.582Q15.8262 50.6924 15.8496 50.7979Q15.8711 50.8984 15.9141 50.9951Q15.9453 51.0674 15.9863 51.1328Q16.0566 51.2412 16.1523 51.332Q16.2168 51.3955 16.293 51.4463Q16.3906 51.5137 16.502 51.5596Q16.5859 51.5928 16.6719 51.6133ZM82.3457 51.5928L16.9316 51.5928C16.3496 51.5928 15.877 51.1396 15.877 50.582L15.877 1.06055C15.877 0.501953 16.3496 0.0498047 16.9316 0.0498047L82.3457 0.0498047C82.9277 0.0498047 83.4004 0.501953 83.4004 1.06055L83.4004 50.582C83.4004 51.1396 82.9277 51.5928 82.3457 51.5928ZM81.2402 2.12109L81.2402 49.5215L18.0371 49.5215L18.0371 2.12109L81.2402 2.12109ZM81.291 2.12109L81.291 49.5713L17.9863 49.5713L17.9863 2.07129L81.291 2.07129L81.291 2.12109Z" fill="#FFFFFF" fill-opacity="1.000000" fill-rule="evenodd"/>
	<path id="XMLID_767_" d="M31.7031 13.1885L23.2617 13.1885C22.6797 13.1885 22.207 12.7363 22.207 12.1777L22.207 7.125C22.207 6.56641 22.6797 6.11426 23.2617 6.11426L31.7031 6.11426C32.2852 6.11426 32.7578 6.56641 32.7578 7.125L32.7578 12.1777C32.7578 12.7363 32.2852 13.1885 31.7031 13.1885ZM24.3164 11.167L30.6484 11.167L30.6484 8.13574L24.3164 8.13574L24.3164 11.167Z" fill="#6D95FC" fill-opacity="1.000000" fill-rule="nonzero"/>
	<path id="XMLID_767_" d="M23.002 13.209Q23.1289 13.2383 23.2617 13.2383L31.7031 13.2383Q31.8359 13.2383 31.9629 13.209Q32.0488 13.1895 32.1328 13.1553Q32.2441 13.1104 32.3418 13.043Q32.418 12.9922 32.4824 12.9287Q32.5781 12.8369 32.6484 12.7285Q32.6895 12.6631 32.7207 12.5918Q32.7637 12.4951 32.7852 12.3936Q32.8086 12.2881 32.8086 12.1777L32.8086 7.125Q32.8086 7.01465 32.7852 6.91016Q32.7637 6.80859 32.7207 6.71094Q32.6895 6.63965 32.6484 6.57422Q32.5781 6.46582 32.4824 6.37402Q32.418 6.31055 32.3418 6.25977Q32.2441 6.19336 32.1328 6.14746Q32.0488 6.11328 31.9629 6.09375Q31.8359 6.06445 31.7031 6.06445L23.2617 6.06445Q23.1289 6.06445 23.002 6.09375Q22.916 6.11328 22.832 6.14746Q22.7207 6.19336 22.6211 6.25977Q22.5469 6.31055 22.4824 6.37402Q22.3867 6.46582 22.3164 6.57422Q22.2754 6.63965 22.2441 6.71094Q22.2012 6.80859 22.1797 6.91016Q22.1562 7.01465 22.1562 7.125L22.1562 12.1777Q22.1562 12.2881 22.1797 12.3926Q22.2012 12.4941 22.2441 12.5918Q22.2754 12.6631 22.3164 12.7285Q22.3867 12.8369 22.4824 12.9287Q22.5469 12.9922 22.6211 13.043Q22.7207 13.1104 22.832 13.1553Q22.916 13.1895 23.002 13.209ZM31.7031 13.1885L23.2617 13.1885C22.6797 13.1885 22.207 12.7363 22.207 12.1777L22.207 7.125C22.207 6.56641 22.6797 6.11426 23.2617 6.11426L31.7031 6.11426C32.2852 6.11426 32.7578 6.56641 32.7578 7.125L32.7578 12.1777C32.7578 12.7363 32.2852 13.1885 31.7031 13.1885ZM30.5977 11.167L30.6484 11.167L30.6484 8.13574L24.3164 8.13574L24.3164 11.167L30.5977 11.167ZM30.5977 11.1172L24.3672 11.1172L24.3672 8.18555L30.5977 8.18555L30.5977 11.1172Z" fill="#FFFFFF" fill-opacity="1.000000" fill-rule="evenodd"/>
	<path id="XMLID_764_" d="M46.4746 13.1885L38.0332 13.1885C37.4512 13.1885 36.9785 12.7363 36.9785 12.1777L36.9785 7.125C36.9785 6.56641 37.4512 6.11426 38.0332 6.11426L46.4746 6.11426C47.0566 6.11426 47.5293 6.56641 47.5293 7.125L47.5293 12.1777C47.5293 12.7363 47.0566 13.1885 46.4746 13.1885ZM39.0879 11.167L45.4199 11.167L45.4199 8.13574L39.0879 8.13574L39.0879 11.167Z" fill="#6D95FC" fill-opacity="1.000000" fill-rule="nonzero"/>
	<path id="XMLID_764_" d="M37.7734 13.209Q37.9004 13.2383 38.0332 13.2383L46.4746 13.2383Q46.6074 13.2383 46.7344 13.209Q46.8203 13.1895 46.9043 13.1553Q47.0156 13.1104 47.1133 13.043Q47.1895 12.9922 47.2539 12.9287Q47.3496 12.8369 47.4199 12.7285Q47.4609 12.6631 47.4922 12.5918Q47.5352 12.4951 47.5566 12.3936Q47.5801 12.2881 47.5801 12.1777L47.5801 7.125Q47.5801 7.01465 47.5566 6.91016Q47.5352 6.80859 47.4922 6.71094Q47.4609 6.63965 47.4199 6.57422Q47.3496 6.46582 47.2539 6.37402Q47.1895 6.31055 47.1133 6.25977Q47.0156 6.19336 46.9043 6.14746Q46.8203 6.11328 46.7344 6.09375Q46.6074 6.06445 46.4746 6.06445L38.0332 6.06445Q37.9004 6.06445 37.7734 6.09375Q37.6875 6.11328 37.6035 6.14746Q37.4922 6.19336 37.3926 6.25977Q37.3184 6.31055 37.2539 6.37402Q37.1582 6.46582 37.0879 6.57422Q37.0469 6.63965 37.0156 6.71094Q36.9727 6.80859 36.9512 6.91016Q36.9277 7.01465 36.9277 7.125L36.9277 12.1777Q36.9277 12.2881 36.9512 12.3926Q36.9727 12.4941 37.0156 12.5918Q37.0469 12.6631 37.0879 12.7285Q37.1582 12.8369 37.2539 12.9287Q37.3184 12.9922 37.3926 13.043Q37.4922 13.1104 37.6035 13.1553Q37.6875 13.1895 37.7734 13.209ZM46.4746 13.1885L38.0332 13.1885C37.4512 13.1885 36.9785 12.7363 36.9785 12.1777L36.9785 7.125C36.9785 6.56641 37.4512 6.11426 38.0332 6.11426L46.4746 6.11426C47.0566 6.11426 47.5293 6.56641 47.5293 7.125L47.5293 12.1777C47.5293 12.7363 47.0566 13.1885 46.4746 13.1885ZM45.3691 11.167L45.4199 11.167L45.4199 8.13574L39.0879 8.13574L39.0879 11.167L45.3691 11.167ZM45.3691 11.1172L39.1387 11.1172L39.1387 8.18555L45.3691 8.18555L45.3691 11.1172Z" fill="#FFFFFF" fill-opacity="1.000000" fill-rule="evenodd"/>
	<path id="XMLID_761_" d="M91.9121 78.8799L7.36523 78.8799C3.33203 78.8799 0.0507812 75.7363 0.0507812 71.8721L0.0507812 65.7412C0.0507812 65.1826 0.523438 64.7305 1.10547 64.7305L98.1719 64.7305C98.7539 64.7305 99.2266 65.1826 99.2266 65.7412L99.2266 71.8721C99.2266 75.7363 95.9453 78.8799 91.9121 78.8799ZM2.16016 66.752L2.16016 71.8721C2.16016 74.6221 4.49609 76.8584 7.36523 76.8584L91.9121 76.8584C94.7812 76.8584 97.1172 74.6221 97.1172 71.8721L97.1172 66.752L2.16016 66.752Z" fill="#FFFFFF" fill-opacity="1.000000" fill-rule="nonzero"/>
	<path id="XMLID_761_" d="M5.6543 78.7383Q6.48828 78.9297 7.36523 78.9297L91.9121 78.9297Q92.7871 78.9297 93.6211 78.7383Q94.209 78.6045 94.7754 78.374Q95.5195 78.0713 96.1699 77.6289Q96.6719 77.2871 97.1152 76.8604Q97.7637 76.2412 98.2246 75.5049Q98.4922 75.0811 98.6973 74.6172Q98.9883 73.96 99.1328 73.2715Q99.2773 72.5869 99.2773 71.8721L99.2773 65.7412Q99.2773 65.6309 99.2539 65.5244Q99.2324 65.4238 99.1895 65.3271Q99.1582 65.2559 99.1152 65.1895Q99.0469 65.0811 98.9531 64.9902Q98.8867 64.9277 98.8125 64.877Q98.7148 64.8096 98.6016 64.7637Q98.5176 64.7305 98.4316 64.71Q98.3047 64.6807 98.1719 64.6807L1.10547 64.6807Q0.972656 64.6807 0.845703 64.71Q0.759766 64.7305 0.675781 64.7637Q0.564453 64.8096 0.464844 64.876Q0.390625 64.9268 0.326172 64.9902Q0.230469 65.082 0.160156 65.1904Q0.119141 65.2559 0.0878906 65.3271Q0.0449219 65.4238 0.0234375 65.5254Q0 65.6309 0 65.7412L0 71.8721Q0 72.5879 0.144531 73.2725Q0.291016 73.96 0.580078 74.6172Q0.785156 75.0801 1.05078 75.5039Q1.51367 76.2402 2.16211 76.8604Q2.60547 77.2861 3.10547 77.627Q3.75586 78.0713 4.50195 78.374Q5.06641 78.6035 5.6543 78.7383ZM91.9121 78.8799L7.36523 78.8799C3.33203 78.8799 0.0507812 75.7363 0.0507812 71.8721L0.0507812 65.7412C0.0507812 65.1826 0.523438 64.7305 1.10547 64.7305L98.1719 64.7305C98.7539 64.7305 99.2266 65.1826 99.2266 65.7412L99.2266 71.8721C99.2266 75.7363 95.9453 78.8799 91.9121 78.8799ZM2.16016 66.8018L2.16016 71.8721C2.16016 74.6221 4.49609 76.8584 7.36523 76.8584L91.9121 76.8584C94.7812 76.8584 97.1172 74.6221 97.1172 71.8721L97.1172 66.752L2.16016 66.752L2.16016 66.8018ZM2.21094 66.8018L2.21094 71.8721Q2.21094 72.373 2.3125 72.8516Q2.41406 73.332 2.61719 73.791Q2.75781 74.1123 2.94336 74.4072Q3.26758 74.9248 3.72266 75.3604Q4.03125 75.6562 4.38086 75.8945Q4.83594 76.207 5.36133 76.4189Q5.75391 76.5791 6.16406 76.6729Q6.74805 76.8086 7.36523 76.8086L91.9121 76.8086Q92.5273 76.8086 93.1113 76.6738Q93.5215 76.5801 93.916 76.4189Q94.4395 76.208 94.8926 75.8975Q95.2441 75.6582 95.5566 75.3604Q96.0098 74.9258 96.332 74.4102Q96.5176 74.1143 96.6602 73.791Q96.8633 73.333 96.9648 72.8525Q97.0664 72.373 97.0664 71.8721L97.0664 66.8018L2.21094 66.8018Z" fill="#6D95FC" fill-opacity="1.000000" fill-rule="evenodd"/>
	<path id="XMLID_760_" d="M98.1719 66.752L1.10547 66.752C0.523438 66.752 0.0507812 66.2998 0.0507812 65.7412L0.0507812 20.5664C0.0507812 15.9404 3.97852 12.1777 8.80859 12.1777L16.9316 12.1777C17.5137 12.1777 17.9863 12.6299 17.9863 13.1885C17.9863 13.7461 17.5137 14.1992 16.9316 14.1992L8.80859 14.1992C5.14258 14.1992 2.16016 17.0557 2.16016 20.5664L2.16016 64.7305L97.1172 64.7305L97.1172 20.5664C97.1172 17.0557 94.1348 14.1992 90.4688 14.1992L82.3457 14.1992C81.7637 14.1992 81.291 13.7461 81.291 13.1885C81.291 12.6299 81.7637 12.1777 82.3457 12.1777L90.4688 12.1777C95.2988 12.1777 99.2266 15.9404 99.2266 20.5664L99.2266 65.7412C99.2266 66.2998 98.7539 66.752 98.1719 66.752Z" fill="#FFFFFF" fill-opacity="1.000000" fill-rule="nonzero"/>
	<path id="XMLID_760_" d="M0.845703 66.7725Q0.972656 66.8018 1.10547 66.8018L98.1719 66.8018Q98.3066 66.8018 98.4336 66.7725Q98.5195 66.7529 98.6016 66.7188Q98.7129 66.6738 98.8125 66.6064Q98.8867 66.5557 98.9531 66.4922Q99.0469 66.4014 99.1152 66.293Q99.1582 66.2275 99.1895 66.1553Q99.2324 66.0586 99.2539 65.958Q99.2773 65.8516 99.2773 65.7412L99.2773 20.5664Q99.2773 19.7109 99.1035 18.8926Q98.9297 18.0693 98.584 17.2842Q98.3379 16.7305 98.0195 16.2236Q97.4668 15.3428 96.6934 14.6016Q96.1621 14.0918 95.5605 13.6826Q94.7852 13.1533 93.8945 12.792Q93.2188 12.5176 92.5156 12.3564Q91.5195 12.1279 90.4688 12.1279L82.3457 12.1279Q82.2109 12.1279 82.084 12.1572Q81.998 12.1777 81.916 12.2109Q81.8027 12.2568 81.7051 12.3242Q81.6309 12.375 81.5645 12.4375Q81.4688 12.5293 81.4004 12.6377Q81.3594 12.7031 81.3281 12.7744Q81.2852 12.8721 81.2637 12.9736Q81.2402 13.0781 81.2402 13.1885Q81.2402 13.2988 81.2637 13.4033Q81.2852 13.5049 81.3281 13.6016Q81.3594 13.6738 81.4004 13.7383Q81.4688 13.8477 81.5645 13.9395Q81.6309 14.002 81.7051 14.0527Q81.8027 14.1201 81.916 14.166Q81.998 14.1992 82.084 14.2197Q82.2109 14.249 82.3457 14.249L90.4688 14.249Q91.2578 14.249 92.0078 14.4219Q92.5312 14.542 93.0352 14.7461Q93.7051 15.0176 94.2871 15.415Q94.7344 15.7217 95.1328 16.1025Q95.7148 16.6592 96.1289 17.3203Q96.3652 17.6982 96.5469 18.1104Q96.8066 18.6982 96.9375 19.3125Q97.0664 19.9258 97.0664 20.5664L97.0664 64.6807L2.21094 64.6807L2.21094 20.5664Q2.21094 19.9258 2.33984 19.3135Q2.4707 18.6982 2.73047 18.1104Q2.91211 17.6992 3.14844 17.3223Q3.5625 16.6592 4.14453 16.1025Q4.54102 15.7227 4.98828 15.417Q5.57227 15.0186 6.24219 14.7461Q6.74609 14.542 7.26953 14.4219Q8.01953 14.249 8.80859 14.249L16.9316 14.249Q17.0664 14.249 17.1914 14.2197Q17.2773 14.1992 17.3613 14.166Q17.4746 14.1201 17.5723 14.0537Q17.6465 14.002 17.7129 13.9395Q17.8086 13.8477 17.877 13.7383Q17.918 13.6738 17.9492 13.6016Q17.9922 13.5049 18.0137 13.4033Q18.0371 13.2979 18.0371 13.1885Q18.0371 13.0781 18.0137 12.9736Q17.9922 12.8721 17.9492 12.7744Q17.918 12.7031 17.877 12.6377Q17.8086 12.5293 17.7129 12.4375Q17.6465 12.374 17.5723 12.3232Q17.4746 12.2568 17.3613 12.2109Q17.2773 12.1768 17.1914 12.1572Q17.0645 12.1279 16.9316 12.1279L8.80859 12.1279Q7.75781 12.1279 6.75977 12.3564Q6.05859 12.5176 5.38281 12.792Q4.49023 13.1543 3.71094 13.6855Q3.11328 14.0938 2.58398 14.6016Q1.80859 15.3438 1.25586 16.2256Q0.939453 16.7314 0.693359 17.2842Q0.347656 18.0693 0.173828 18.8916Q0 19.7109 0 20.5664L0 65.7412Q0 65.8516 0.0234375 65.957Q0.0449219 66.0586 0.0878906 66.1553Q0.119141 66.2266 0.160156 66.292Q0.230469 66.4004 0.326172 66.4922Q0.390625 66.5557 0.466797 66.6064Q0.564453 66.6738 0.675781 66.7188Q0.759766 66.7529 0.845703 66.7725ZM2.21094 64.7305L2.16016 64.7305L2.16016 20.5664C2.16016 17.0557 5.14258 14.1992 8.80859 14.1992L16.9316 14.1992C17.5137 14.1992 17.9863 13.7461 17.9863 13.1885C17.9863 12.6299 17.5137 12.1777 16.9316 12.1777L8.80859 12.1777C3.97852 12.1777 0.0507812 15.9404 0.0507812 20.5664L0.0507812 65.7412C0.0507812 66.2998 0.523438 66.752 1.10547 66.752L98.1719 66.752C98.7539 66.752 99.2266 66.2998 99.2266 65.7412L99.2266 20.5664C99.2266 15.9404 95.2988 12.1777 90.4688 12.1777L82.3457 12.1777C81.7637 12.1777 81.291 12.6299 81.291 13.1885C81.291 13.7461 81.7637 14.1992 82.3457 14.1992L90.4688 14.1992C94.1348 14.1992 97.1172 17.0557 97.1172 20.5664L97.1172 64.7305L2.21094 64.7305Z" fill="#6D95FC" fill-opacity="1.000000" fill-rule="evenodd"/>
	<path id="XMLID_757_" d="M61.2441 13.1885L52.8027 13.1885C52.2207 13.1885 51.748 12.7363 51.748 12.1777L51.748 7.125C51.748 6.56641 52.2207 6.11426 52.8027 6.11426L61.2441 6.11426C61.8262 6.11426 62.2988 6.56641 62.2988 7.125L62.2988 12.1777C62.2988 12.7363 61.8262 13.1885 61.2441 13.1885ZM53.8574 11.167L60.1895 11.167L60.1895 8.13574L53.8574 8.13574L53.8574 11.167Z" fill="#6D95FC" fill-opacity="1.000000" fill-rule="nonzero"/>
	<path id="XMLID_757_" d="M52.541 13.209Q52.6699 13.2383 52.8027 13.2383L61.2441 13.2383Q61.377 13.2383 61.5039 13.209Q61.5898 13.1895 61.6738 13.1553Q61.7852 13.1104 61.8848 13.043Q61.959 12.9922 62.0234 12.9287Q62.1191 12.8369 62.1875 12.7285Q62.2305 12.6631 62.2617 12.5918Q62.3047 12.4951 62.3262 12.3936Q62.3496 12.2881 62.3496 12.1777L62.3496 7.125Q62.3496 7.01465 62.3262 6.90918Q62.3047 6.80859 62.2617 6.71094Q62.2305 6.63965 62.1875 6.57422Q62.1191 6.46582 62.0234 6.37402Q61.959 6.31055 61.8848 6.25977Q61.7852 6.19336 61.6738 6.14746Q61.5898 6.11426 61.5039 6.09375Q61.377 6.06445 61.2441 6.06445L52.8027 6.06445Q52.6699 6.06445 52.543 6.09375Q52.457 6.11426 52.373 6.14746Q52.2617 6.19336 52.1621 6.25977Q52.0879 6.31055 52.0215 6.37402Q51.9277 6.46582 51.8574 6.57422Q51.8164 6.63965 51.7852 6.71094Q51.7422 6.80859 51.7207 6.90918Q51.6973 7.01465 51.6973 7.125L51.6973 12.1777Q51.6973 12.2881 51.7207 12.3936Q51.7422 12.4951 51.7852 12.5918Q51.8164 12.6631 51.8574 12.7285Q51.9277 12.8369 52.0215 12.9287Q52.0879 12.9922 52.1621 13.043Q52.2617 13.1104 52.373 13.1553Q52.457 13.1895 52.541 13.209ZM61.2441 13.1885L52.8027 13.1885C52.2207 13.1885 51.748 12.7363 51.748 12.1777L51.748 7.125C51.748 6.56641 52.2207 6.11426 52.8027 6.11426L61.2441 6.11426C61.8262 6.11426 62.2988 6.56641 62.2988 7.125L62.2988 12.1777C62.2988 12.7363 61.8262 13.1885 61.2441 13.1885ZM60.1387 11.167L60.1895 11.167L60.1895 8.13574L53.8574 8.13574L53.8574 11.167L60.1387 11.167ZM60.1387 11.1172L53.9082 11.1172L53.9082 8.18555L60.1387 8.18555L60.1387 11.1172Z" fill="#FFFFFF" fill-opacity="1.000000" fill-rule="evenodd"/>
	<path id="XMLID_754_" d="M76.0156 13.1885L67.5742 13.1885C66.9922 13.1885 66.5195 12.7363 66.5195 12.1777L66.5195 7.125C66.5195 6.56641 66.9922 6.11426 67.5742 6.11426L76.0156 6.11426C76.5977 6.11426 77.0703 6.56641 77.0703 7.125L77.0703 12.1777C77.0703 12.7363 76.5977 13.1885 76.0156 13.1885ZM68.6289 11.167L74.9609 11.167L74.9609 8.13574L68.6289 8.13574L68.6289 11.167Z" fill="#6D95FC" fill-opacity="1.000000" fill-rule="nonzero"/>
	<path id="XMLID_754_" d="M67.5742 13.1885C66.9922 13.1885 66.5195 12.7363 66.5195 12.1777L66.5195 7.125C66.5195 6.56641 66.9922 6.11426 67.5742 6.11426L76.0156 6.11426C76.5977 6.11426 77.0703 6.56641 77.0703 7.125L77.0703 12.1777C77.0703 12.7363 76.5977 13.1885 76.0156 13.1885L67.5742 13.1885ZM74.9609 11.167L74.9609 8.13574L68.6289 8.13574L68.6289 11.167L74.9609 11.167Z" stroke="#6D95FC" stroke-opacity="1.000000" stroke-width="0.050000"/>
	<path id="XMLID_751_" d="M31.7031 45.5283L23.2617 45.5283C22.6797 45.5283 22.207 45.0762 22.207 44.5176L22.207 39.4648C22.207 38.9062 22.6797 38.4541 23.2617 38.4541L31.7031 38.4541C32.2852 38.4541 32.7578 38.9062 32.7578 39.4648L32.7578 44.5176C32.7578 45.0762 32.2852 45.5283 31.7031 45.5283ZM24.3164 43.5068L30.6484 43.5068L30.6484 40.4756L24.3164 40.4756L24.3164 43.5068Z" fill="#6D95FC" fill-opacity="1.000000" fill-rule="nonzero"/>
	<path id="XMLID_751_" d="M23.2617 45.5283C22.6797 45.5283 22.207 45.0762 22.207 44.5176L22.207 39.4648C22.207 38.9062 22.6797 38.4541 23.2617 38.4541L31.7031 38.4541C32.2852 38.4541 32.7578 38.9062 32.7578 39.4648L32.7578 44.5176C32.7578 45.0762 32.2852 45.5283 31.7031 45.5283L23.2617 45.5283ZM30.6484 43.5068L30.6484 40.4756L24.3164 40.4756L24.3164 43.5068L30.6484 43.5068Z" stroke="#6D95FC" stroke-opacity="1.000000" stroke-width="0.050000"/>
	<path id="XMLID_748_" d="M46.4746 45.5283L38.0332 45.5283C37.4512 45.5283 36.9785 45.0762 36.9785 44.5176L36.9785 39.4648C36.9785 38.9062 37.4512 38.4541 38.0332 38.4541L46.4746 38.4541C47.0566 38.4541 47.5293 38.9062 47.5293 39.4648L47.5293 44.5176C47.5293 45.0762 47.0566 45.5283 46.4746 45.5283ZM39.0879 43.5068L45.4199 43.5068L45.4199 40.4756L39.0879 40.4756L39.0879 43.5068Z" fill="#6D95FC" fill-opacity="1.000000" fill-rule="nonzero"/>
	<path id="XMLID_748_" d="M38.0332 45.5283C37.4512 45.5283 36.9785 45.0762 36.9785 44.5176L36.9785 39.4648C36.9785 38.9062 37.4512 38.4541 38.0332 38.4541L46.4746 38.4541C47.0566 38.4541 47.5293 38.9062 47.5293 39.4648L47.5293 44.5176C47.5293 45.0762 47.0566 45.5283 46.4746 45.5283L38.0332 45.5283ZM45.4199 43.5068L45.4199 40.4756L39.0879 40.4756L39.0879 43.5068L45.4199 43.5068Z" stroke="#6D95FC" stroke-opacity="1.000000" stroke-width="0.050000"/>
	<path id="XMLID_745_" d="M61.2441 45.5283L52.8027 45.5283C52.2207 45.5283 51.748 45.0762 51.748 44.5176L51.748 39.4648C51.748 38.9062 52.2207 38.4541 52.8027 38.4541L61.2441 38.4541C61.8262 38.4541 62.2988 38.9062 62.2988 39.4648L62.2988 44.5176C62.2988 45.0762 61.8262 45.5283 61.2441 45.5283ZM53.8574 43.5068L60.1895 43.5068L60.1895 40.4756L53.8574 40.4756L53.8574 43.5068Z" fill="#6D95FC" fill-opacity="1.000000" fill-rule="nonzero"/>
	<path id="XMLID_745_" d="M52.8027 45.5283C52.2207 45.5283 51.748 45.0762 51.748 44.5176L51.748 39.4648C51.748 38.9062 52.2207 38.4541 52.8027 38.4541L61.2441 38.4541C61.8262 38.4541 62.2988 38.9062 62.2988 39.4648L62.2988 44.5176C62.2988 45.0762 61.8262 45.5283 61.2441 45.5283L52.8027 45.5283ZM60.1895 43.5068L60.1895 40.4756L53.8574 40.4756L53.8574 43.5068L60.1895 43.5068Z" stroke="#6D95FC" stroke-opacity="1.000000" stroke-width="0.050000"/>
	<path id="XMLID_742_" d="M76.0156 45.5283L67.5742 45.5283C66.9922 45.5283 66.5195 45.0762 66.5195 44.5176L66.5195 39.4648C66.5195 38.9062 66.9922 38.4541 67.5742 38.4541L76.0156 38.4541C76.5977 38.4541 77.0703 38.9062 77.0703 39.4648L77.0703 44.5176C77.0703 45.0762 76.5977 45.5283 76.0156 45.5283ZM68.6289 43.5068L74.9609 43.5068L74.9609 40.4756L68.6289 40.4756L68.6289 43.5068Z" fill="#6D95FC" fill-opacity="1.000000" fill-rule="nonzero"/>
	<path id="XMLID_742_" d="M67.5742 45.5283C66.9922 45.5283 66.5195 45.0762 66.5195 44.5176L66.5195 39.4648C66.5195 38.9062 66.9922 38.4541 67.5742 38.4541L76.0156 38.4541C76.5977 38.4541 77.0703 38.9062 77.0703 39.4648L77.0703 44.5176C77.0703 45.0762 76.5977 45.5283 76.0156 45.5283L67.5742 45.5283ZM74.9609 43.5068L74.9609 40.4756L68.6289 40.4756L68.6289 43.5068L74.9609 43.5068Z" stroke="#6D95FC" stroke-opacity="1.000000" stroke-width="0.050000"/>
	<path id="XMLID_739_" d="M61.2441 91.0078L38.0332 91.0078C37.4512 91.0078 36.9785 90.5547 36.9785 89.9971L36.9785 77.8691C36.9785 77.3105 37.4512 76.8584 38.0332 76.8584L61.2441 76.8584C61.8281 76.8584 62.3008 77.3105 62.3008 77.8691L62.3008 89.9971C62.3008 90.5547 61.8281 91.0078 61.2441 91.0078ZM39.0879 88.9863L60.1895 88.9863L60.1895 78.8799L39.0879 78.8799L39.0879 88.9863Z" fill="#FFFFFF" fill-opacity="1.000000" fill-rule="nonzero"/>
	<path id="XMLID_739_" d="M37.7734 91.0273Q37.9004 91.0576 38.0332 91.0576L61.2441 91.0576Q61.3789 91.0576 61.5059 91.0273Q61.5918 91.0078 61.6738 90.9746Q61.7871 90.9287 61.8848 90.8613Q61.959 90.8105 62.0254 90.7471Q62.1211 90.6562 62.1895 90.5479Q62.2305 90.4824 62.2637 90.4102Q62.3047 90.3135 62.3281 90.2129Q62.3496 90.1074 62.3496 89.9971L62.3496 77.8691Q62.3496 77.7588 62.3281 77.6533Q62.3047 77.5518 62.2637 77.4551Q62.2305 77.3838 62.1895 77.3184Q62.1211 77.21 62.0254 77.1182Q61.959 77.0547 61.8848 77.0039Q61.7871 76.9375 61.6738 76.8916Q61.5918 76.8584 61.5059 76.8379Q61.3789 76.8086 61.2441 76.8086L38.0332 76.8086Q37.9004 76.8086 37.7734 76.8379Q37.6875 76.8584 37.6035 76.8916Q37.4922 76.9375 37.3926 77.0039Q37.3184 77.0547 37.2539 77.1182Q37.1582 77.21 37.0879 77.3184Q37.0469 77.3838 37.0156 77.4551Q36.9727 77.5518 36.9512 77.6533Q36.9277 77.7588 36.9277 77.8691L36.9277 89.9971Q36.9277 90.1074 36.9512 90.2119Q36.9727 90.3135 37.0156 90.4102Q37.0469 90.4814 37.0879 90.5469Q37.1582 90.6562 37.2539 90.7471Q37.3184 90.8105 37.3926 90.8613Q37.4922 90.9287 37.6035 90.9746Q37.6875 91.0078 37.7734 91.0273ZM61.2441 91.0078L38.0332 91.0078C37.4512 91.0078 36.9785 90.5547 36.9785 89.9971L36.9785 77.8691C36.9785 77.3105 37.4512 76.8584 38.0332 76.8584L61.2441 76.8584C61.8281 76.8584 62.3008 77.3105 62.3008 77.8691L62.3008 89.9971C62.3008 90.5547 61.8281 91.0078 61.2441 91.0078ZM60.1406 88.9863L60.1895 88.9863L60.1895 78.8799L39.0879 78.8799L39.0879 88.9863L60.1406 88.9863ZM60.1406 88.9365L39.1387 88.9365L39.1387 78.9297L60.1406 78.9297L60.1406 88.9365Z" fill="#6D95FC" fill-opacity="1.000000" fill-rule="evenodd"/>
	<path id="XMLID_736_" d="M55.9688 91.0078L43.3086 91.0078C42.7266 91.0078 42.2539 90.5547 42.2539 89.9971L42.2539 77.8691C42.2539 77.3105 42.7266 76.8584 43.3086 76.8584L55.9688 76.8584C56.5527 76.8584 57.0254 77.3105 57.0254 77.8691L57.0254 89.9971C57.0254 90.5547 56.5527 91.0078 55.9688 91.0078ZM44.3633 88.9863L54.9141 88.9863L54.9141 78.8799L44.3633 78.8799L44.3633 88.9863Z" fill="#FFFFFF" fill-opacity="1.000000" fill-rule="nonzero"/>
	<path id="XMLID_736_" d="M43.0488 91.0273Q43.1758 91.0576 43.3086 91.0576L55.9688 91.0576Q56.1035 91.0576 56.2305 91.0273Q56.3164 91.0078 56.3984 90.9746Q56.5117 90.9287 56.6113 90.8613Q56.6855 90.8105 56.75 90.7471Q56.8457 90.6562 56.9141 90.5479Q56.9551 90.4824 56.9883 90.4102Q57.0293 90.3135 57.0527 90.2129Q57.0742 90.1074 57.0742 89.9971L57.0742 77.8691Q57.0742 77.7588 57.0527 77.6533Q57.0293 77.5518 56.9883 77.4551Q56.9551 77.3838 56.9141 77.3184Q56.8457 77.21 56.75 77.1182Q56.6836 77.0557 56.6094 77.0049Q56.5117 76.9375 56.3984 76.8916Q56.3164 76.8584 56.2305 76.8379Q56.1035 76.8086 55.9688 76.8086L43.3086 76.8086Q43.1758 76.8086 43.0488 76.8379Q42.9629 76.8584 42.8789 76.8916Q42.7676 76.9375 42.668 77.0039Q42.5938 77.0547 42.5293 77.1182Q42.4336 77.21 42.3633 77.3184Q42.3223 77.3838 42.291 77.4551Q42.248 77.5518 42.2266 77.6533Q42.2031 77.7588 42.2031 77.8691L42.2031 89.9971Q42.2031 90.1074 42.2266 90.2119Q42.248 90.3135 42.291 90.4102Q42.3223 90.4814 42.3633 90.5469Q42.4336 90.6562 42.5293 90.7471Q42.5938 90.8105 42.668 90.8613Q42.7676 90.9287 42.8789 90.9746Q42.9629 91.0078 43.0488 91.0273ZM55.9688 91.0078L43.3086 91.0078C42.7266 91.0078 42.2539 90.5547 42.2539 89.9971L42.2539 77.8691C42.2539 77.3105 42.7266 76.8584 43.3086 76.8584L55.9688 76.8584C56.5527 76.8584 57.0254 77.3105 57.0254 77.8691L57.0254 89.9971C57.0254 90.5547 56.5527 91.0078 55.9688 91.0078ZM54.8652 88.9863L54.9141 88.9863L54.9141 78.8799L44.3633 78.8799L44.3633 88.9863L54.8652 88.9863ZM54.8652 88.9365L44.4141 88.9365L44.4141 78.9297L54.8652 78.9297L54.8652 88.9365Z" fill="#6D95FC" fill-opacity="1.000000" fill-rule="evenodd"/>
	<path id="XMLID_733_" d="M64.4102 95.0488L34.8691 95.0488C33.123 95.0488 31.7031 93.6895 31.7031 92.0176C31.7031 90.3457 33.123 88.9854 34.8691 88.9854L64.4102 88.9854C66.1562 88.9854 67.5762 90.3457 67.5762 92.0176C67.5762 93.6895 66.1562 95.0488 64.4102 95.0488ZM34.8691 91.0068C34.2871 91.0068 33.8125 91.46 33.8125 92.0176C33.8125 92.5742 34.2871 93.0283 34.8691 93.0283L64.4102 93.0283C64.9922 93.0283 65.4648 92.5742 65.4648 92.0176C65.4648 91.46 64.9922 91.0068 64.4102 91.0068L34.8691 91.0068Z" fill="#FFFFFF" fill-opacity="1.000000" fill-rule="nonzero"/>
	<path id="XMLID_733_" d="M34.1211 95.0156Q34.4844 95.0996 34.8691 95.0996L64.4102 95.0996Q64.793 95.0996 65.1562 95.0156Q65.4121 94.957 65.6602 94.8564Q65.9863 94.7246 66.2695 94.5303Q66.4883 94.3818 66.6816 94.1963Q66.9648 93.9258 67.166 93.6035Q67.2832 93.4189 67.3711 93.2168Q67.498 92.9297 67.5625 92.6289Q67.625 92.3301 67.625 92.0176Q67.625 91.7051 67.5625 91.4053Q67.498 91.1045 67.3711 90.8184Q67.2832 90.6162 67.166 90.4307Q66.9648 90.1094 66.6816 89.8379Q66.4883 89.6533 66.2695 89.5039Q65.9863 89.3105 65.6602 89.1777Q65.4121 89.0771 65.1562 89.0186Q64.793 88.9355 64.4102 88.9355L34.8691 88.9355Q34.4863 88.9355 34.1211 89.0186Q33.8652 89.0771 33.6191 89.1777Q33.293 89.3096 33.0078 89.5039Q32.791 89.6523 32.5957 89.8379Q32.3145 90.1084 32.1133 90.4297Q31.9961 90.6152 31.9062 90.8184Q31.7793 91.1055 31.7168 91.4053Q31.6523 91.7051 31.6523 92.0176Q31.6523 92.3301 31.7168 92.6289Q31.7793 92.9297 31.9062 93.2168Q31.9961 93.4189 32.1133 93.6045Q32.3145 93.9258 32.5957 94.1963Q32.791 94.3818 33.0078 94.5303Q33.293 94.7246 33.6191 94.8564Q33.8652 94.957 34.1211 95.0156ZM64.4102 95.0488L34.8691 95.0488C33.123 95.0488 31.7031 93.6895 31.7031 92.0176C31.7031 90.3457 33.123 88.9854 34.8691 88.9854L64.4102 88.9854C66.1562 88.9854 67.5762 90.3457 67.5762 92.0176C67.5762 93.6895 66.1562 95.0488 64.4102 95.0488ZM34.8691 91.0068C34.2871 91.0068 33.8125 91.46 33.8125 92.0176C33.8125 92.5742 34.2871 93.0283 34.8691 93.0283L64.4102 93.0283C64.9922 93.0283 65.4648 92.5742 65.4648 92.0176C65.4648 91.46 64.9922 91.0068 64.4102 91.0068L34.8691 91.0068ZM33.8828 92.207Q33.8633 92.1143 33.8633 92.0176Q33.8633 91.9199 33.8828 91.8271Q33.9023 91.7334 33.9414 91.6445Q33.9688 91.583 34.0039 91.5264Q34.0684 91.4248 34.1562 91.3389Q34.2168 91.2812 34.2852 91.2354Q34.375 91.1738 34.4766 91.1328Q34.5527 91.1016 34.6328 91.083Q34.748 91.0566 34.8691 91.0566L64.4102 91.0566Q64.5312 91.0566 64.6465 91.083Q64.7246 91.1016 64.8008 91.1328Q64.9043 91.1738 64.9941 91.2354Q65.0605 91.2812 65.1211 91.3389Q65.2109 91.4248 65.2734 91.5273Q65.3086 91.583 65.3359 91.6445Q65.375 91.7334 65.3945 91.8271Q65.416 91.9199 65.416 92.0176Q65.416 92.1143 65.3945 92.207Q65.375 92.3008 65.3359 92.3896Q65.3086 92.4512 65.2734 92.5078Q65.2109 92.6094 65.1211 92.6953Q65.0605 92.7529 64.9941 92.7988Q64.9043 92.8604 64.8008 92.9023Q64.7246 92.9326 64.6465 92.9512Q64.5312 92.9775 64.4102 92.9775L34.8691 92.9775Q34.748 92.9775 34.6328 92.9512Q34.5527 92.9326 34.4766 92.9023Q34.375 92.8604 34.2852 92.7988Q34.2168 92.7529 34.1562 92.6953Q34.0684 92.6094 34.0039 92.5078Q33.9688 92.4512 33.9414 92.3896Q33.9023 92.3008 33.8828 92.207Z" fill="#6D95FC" fill-opacity="1.000000" fill-rule="evenodd"/>
</svg>
